<?xml version="1.0" encoding="UTF-8" standalone="no"?>
<!-- Created with Inkscape (http://www.inkscape.org/) -->

<svg
   width="180.2937mm"
   height="130.60204mm"
   viewBox="0 0 180.29369 130.60205"
   version="1.1"
   id="svg5"
   xml:space="preserve"
   inkscape:version="1.2.1 (9c6d41e, 2022-07-14)"
   sodipodi:docname="SupplementaryFigure2_AcintoAbsoluteAbundance_pvalue.svg"
   xmlns:inkscape="http://www.inkscape.org/namespaces/inkscape"
   xmlns:sodipodi="http://sodipodi.sourceforge.net/DTD/sodipodi-0.dtd"
   xmlns="http://www.w3.org/2000/svg"
   xmlns:svg="http://www.w3.org/2000/svg"><sodipodi:namedview
     id="namedview7"
     pagecolor="#ffffff"
     bordercolor="#000000"
     borderopacity="0.25"
     inkscape:showpageshadow="2"
     inkscape:pageopacity="0.0"
     inkscape:pagecheckerboard="0"
     inkscape:deskcolor="#d1d1d1"
     inkscape:document-units="mm"
     showgrid="false"
     inkscape:zoom="0.95490146"
     inkscape:cx="429.88729"
     inkscape:cy="323.06998"
     inkscape:window-width="1713"
     inkscape:window-height="1177"
     inkscape:window-x="2065"
     inkscape:window-y="123"
     inkscape:window-maximized="0"
     inkscape:current-layer="svg5" /><defs
     id="defs2"><clipPath
       clipPathUnits="userSpaceOnUse"
       id="clipPath1077"><path
         d="M 0,180 H 396 V 360 H 0 Z"
         id="path1075" /></clipPath><clipPath
       clipPathUnits="userSpaceOnUse"
       id="clipPath1099"><path
         d="M 0,180 H 198 V 360 H 0 Z"
         id="path1097" /></clipPath><clipPath
       clipPathUnits="userSpaceOnUse"
       id="clipPath1111"><path
         d="M 58.26,182.74 H 198 V 341.39 H 58.26 Z"
         id="path1109" /></clipPath><clipPath
       clipPathUnits="userSpaceOnUse"
       id="clipPath1287"><path
         d="M 198,180 H 396 V 360 H 198 Z"
         id="path1285" /></clipPath><clipPath
       clipPathUnits="userSpaceOnUse"
       id="clipPath1299"><path
         d="M 200.74,182.74 H 393.17 V 341.39 H 200.74 Z"
         id="path1297" /></clipPath><clipPath
       clipPathUnits="userSpaceOnUse"
       id="clipPath1515"><path
         d="M 0,0 H 396 V 180 H 0 Z"
         id="path1513" /></clipPath><clipPath
       clipPathUnits="userSpaceOnUse"
       id="clipPath1535"><path
         d="M 0,0 H 198 V 180 H 0 Z"
         id="path1533" /></clipPath><clipPath
       clipPathUnits="userSpaceOnUse"
       id="clipPath1547"><path
         d="M 58.26,24.68 H 198 V 180 H 58.26 Z"
         id="path1545" /></clipPath><clipPath
       clipPathUnits="userSpaceOnUse"
       id="clipPath1739"><path
         d="M 198,0 H 396 V 180 H 198 Z"
         id="path1737" /></clipPath><clipPath
       clipPathUnits="userSpaceOnUse"
       id="clipPath1751"><path
         d="M 200.74,24.68 H 393.17 V 180 H 200.74 Z"
         id="path1749" /></clipPath><clipPath
       clipPathUnits="userSpaceOnUse"
       id="clipPath1846"><path
         d="M 0,0 H 387.69 V 360 H 0 Z"
         id="path1844" /></clipPath><clipPath
       clipPathUnits="userSpaceOnUse"
       id="clipPath1858"><path
         d="M 0,180 H 387.69 V 360 H 0 Z"
         id="path1856" /></clipPath><clipPath
       clipPathUnits="userSpaceOnUse"
       id="clipPath1880"><path
         d="M 0,180 H 193.85 V 360 H 0 Z"
         id="path1878" /></clipPath><clipPath
       clipPathUnits="userSpaceOnUse"
       id="clipPath1892"><path
         d="M 58.26,182.74 H 193.84 V 341.39 H 58.26 Z"
         id="path1890" /></clipPath><clipPath
       clipPathUnits="userSpaceOnUse"
       id="clipPath2068"><path
         d="M 193.85,180 H 387.7 V 360 H 193.85 Z"
         id="path2066" /></clipPath><clipPath
       clipPathUnits="userSpaceOnUse"
       id="clipPath2080"><path
         d="M 196.59,182.74 H 384.86 V 341.39 H 196.59 Z"
         id="path2078" /></clipPath><clipPath
       clipPathUnits="userSpaceOnUse"
       id="clipPath2296"><path
         d="M 0,0 H 387.69 V 180 H 0 Z"
         id="path2294" /></clipPath><clipPath
       clipPathUnits="userSpaceOnUse"
       id="clipPath2316"><path
         d="M 0,0 H 193.85 V 180 H 0 Z"
         id="path2314" /></clipPath><clipPath
       clipPathUnits="userSpaceOnUse"
       id="clipPath2328"><path
         d="M 58.26,24.68 H 193.84 V 180 H 58.26 Z"
         id="path2326" /></clipPath><clipPath
       clipPathUnits="userSpaceOnUse"
       id="clipPath2520"><path
         d="M 193.85,0 H 387.7 V 180 H 193.85 Z"
         id="path2518" /></clipPath><clipPath
       clipPathUnits="userSpaceOnUse"
       id="clipPath2532"><path
         d="M 196.59,24.68 H 384.86 V 180 H 196.59 Z"
         id="path2530" /></clipPath></defs><g
     id="g1874"
     transform="matrix(0.35277775,0,0,-0.35277777,1.385389,128.66247)"><g
       id="g1876"
       clip-path="url(#clipPath1880)"><path
         d="M 0,180 H 193.85 V 360 H 0 Z"
         style="fill:#ffffff;fill-opacity:1;fill-rule:nonzero;stroke:#ffffff;stroke-width:1.07;stroke-linecap:round;stroke-linejoin:round;stroke-miterlimit:10;stroke-dasharray:none;stroke-opacity:1"
         id="path1882" /></g></g><g
     id="g1886"
     transform="matrix(0.35277775,0,0,-0.35277777,1.385389,128.66247)"><g
       id="g1888"
       clip-path="url(#clipPath1892)"><path
         d="M 58.26,182.74 H 193.84 V 341.39 H 58.26 Z"
         style="fill:#ffffff;fill-opacity:1;fill-rule:nonzero;stroke:none"
         id="path1894" /><path
         d="M 58.26,240.72 H 193.85"
         style="fill:none;stroke:#ebebeb;stroke-width:0.53;stroke-linecap:butt;stroke-linejoin:round;stroke-miterlimit:10;stroke-dasharray:none;stroke-opacity:1"
         id="path1896" /><path
         d="M 58.26,298.73 H 193.85"
         style="fill:none;stroke:#ebebeb;stroke-width:0.53;stroke-linecap:butt;stroke-linejoin:round;stroke-miterlimit:10;stroke-dasharray:none;stroke-opacity:1"
         id="path1898" /><path
         d="M 58.26,210.38 H 193.85"
         style="fill:none;stroke:#ebebeb;stroke-width:1.07;stroke-linecap:butt;stroke-linejoin:round;stroke-miterlimit:10;stroke-dasharray:none;stroke-opacity:1"
         id="path1900" /><path
         d="M 58.26,271.05 H 193.85"
         style="fill:none;stroke:#ebebeb;stroke-width:1.07;stroke-linecap:butt;stroke-linejoin:round;stroke-miterlimit:10;stroke-dasharray:none;stroke-opacity:1"
         id="path1902" /><path
         d="M 58.26,326.41 H 193.85"
         style="fill:none;stroke:#ebebeb;stroke-width:1.07;stroke-linecap:butt;stroke-linejoin:round;stroke-miterlimit:10;stroke-dasharray:none;stroke-opacity:1"
         id="path1904" /><path
         d="m 95.24,244.89 61.63,37.81"
         style="fill:none;stroke:#bebebe;stroke-width:1.07;stroke-linecap:butt;stroke-linejoin:round;stroke-miterlimit:10;stroke-dasharray:none;stroke-opacity:1"
         id="path1906" /><path
         d="m 92.16,290.46 h 6.16"
         style="fill:none;stroke:#000000;stroke-width:1.07;stroke-linecap:butt;stroke-linejoin:round;stroke-miterlimit:10;stroke-dasharray:none;stroke-opacity:1"
         id="path1908" /><path
         d="M 95.24,290.46 V 199.3"
         style="fill:none;stroke:#000000;stroke-width:1.07;stroke-linecap:butt;stroke-linejoin:round;stroke-miterlimit:10;stroke-dasharray:none;stroke-opacity:1"
         id="path1910" /><path
         d="m 92.16,199.3 h 6.16"
         style="fill:none;stroke:#000000;stroke-width:1.07;stroke-linecap:butt;stroke-linejoin:round;stroke-miterlimit:10;stroke-dasharray:none;stroke-opacity:1"
         id="path1912" /><path
         d="m 153.79,315.79 h 6.16"
         style="fill:none;stroke:#000000;stroke-width:1.07;stroke-linecap:butt;stroke-linejoin:round;stroke-miterlimit:10;stroke-dasharray:none;stroke-opacity:1"
         id="path1914" /><path
         d="m 156.87,315.79 v -66"
         style="fill:none;stroke:#000000;stroke-width:1.07;stroke-linecap:butt;stroke-linejoin:round;stroke-miterlimit:10;stroke-dasharray:none;stroke-opacity:1"
         id="path1916" /><path
         d="m 153.79,249.79 h 6.16"
         style="fill:none;stroke:#000000;stroke-width:1.07;stroke-linecap:butt;stroke-linejoin:round;stroke-miterlimit:10;stroke-dasharray:none;stroke-opacity:1"
         id="path1918" /><path
         d="m 92.22,244.89 c 0,1.66 1.36,3.02 3.02,3.02 1.66,0 3.02,-1.36 3.02,-3.02 0,-1.66 -1.36,-3.02 -3.02,-3.02 -1.66,0 -3.02,1.36 -3.02,3.02"
         style="fill:#acaaaf;fill-opacity:1;fill-rule:nonzero;stroke:#acaaaf;stroke-width:0.71;stroke-linecap:round;stroke-linejoin:round;stroke-miterlimit:10;stroke-dasharray:none;stroke-opacity:1"
         id="path1920" /><path
         d="m 153.85,282.7 c 0,1.66 1.36,3.02 3.02,3.02 1.66,0 3.02,-1.36 3.02,-3.02 0,-1.67 -1.36,-3.03 -3.02,-3.03 -1.66,0 -3.02,1.36 -3.02,3.03"
         style="fill:#c3a5d0;fill-opacity:1;fill-rule:nonzero;stroke:#c3a5d0;stroke-width:0.71;stroke-linecap:round;stroke-linejoin:round;stroke-miterlimit:10;stroke-dasharray:none;stroke-opacity:1"
         id="path1922" /><path
         d="M 58.26,182.74 H 193.84 V 341.39 H 58.26 Z"
         style="fill:none;stroke:#333333;stroke-width:1.07;stroke-linecap:round;stroke-linejoin:round;stroke-miterlimit:10;stroke-dasharray:none;stroke-opacity:1"
         id="path1924" /></g></g><g
     id="g1956"
     transform="matrix(0.35277775,0,0,-0.35277777,1.385389,128.66247)"><text
       xml:space="preserve"
       transform="matrix(1,0,0,-1,25.25,206.79)"
       style="font-variant:normal;font-weight:normal;font-size:10px;font-family:Helvetica;-inkscape-font-specification:Helvetica;writing-mode:lr-tb;fill:#4d4d4d;fill-opacity:1;fill-rule:nonzero;stroke:none"
       id="text1960"><tspan
         x="0 5.5599999 11.12 16.959999 22.52"
         y="0"
         sodipodi:role="line"
         id="tspan1958">3e+10</tspan></text><text
       xml:space="preserve"
       transform="matrix(1,0,0,-1,25.25,267.46)"
       style="font-variant:normal;font-weight:normal;font-size:10px;font-family:Helvetica;-inkscape-font-specification:Helvetica;writing-mode:lr-tb;fill:#4d4d4d;fill-opacity:1;fill-rule:nonzero;stroke:none"
       id="text1964"><tspan
         x="0 5.5599999 11.12 16.959999 22.52"
         y="0"
         sodipodi:role="line"
         id="tspan1962">1e+11</tspan></text><text
       xml:space="preserve"
       transform="matrix(1,0,0,-1,25.25,322.82)"
       style="font-variant:normal;font-weight:normal;font-size:10px;font-family:Helvetica;-inkscape-font-specification:Helvetica;writing-mode:lr-tb;fill:#4d4d4d;fill-opacity:1;fill-rule:nonzero;stroke:none"
       id="text1968"><tspan
         x="0 5.5599999 11.12 16.959999 22.52"
         y="0"
         sodipodi:role="line"
         id="tspan1966">3e+11</tspan></text></g><g
     id="g1972"
     transform="matrix(0.35277775,0,0,-0.35277777,1.385389,128.66247)"><path
       d="m 55.52,210.38 h 2.74"
       style="fill:none;stroke:#333333;stroke-width:1.07;stroke-linecap:butt;stroke-linejoin:round;stroke-miterlimit:10;stroke-dasharray:none;stroke-opacity:1"
       id="path1974" /><path
       d="m 55.52,271.05 h 2.74"
       style="fill:none;stroke:#333333;stroke-width:1.07;stroke-linecap:butt;stroke-linejoin:round;stroke-miterlimit:10;stroke-dasharray:none;stroke-opacity:1"
       id="path1976" /><path
       d="m 55.52,326.41 h 2.74"
       style="fill:none;stroke:#333333;stroke-width:1.07;stroke-linecap:butt;stroke-linejoin:round;stroke-miterlimit:10;stroke-dasharray:none;stroke-opacity:1"
       id="path1978" /></g><g
     id="g2012"
     transform="matrix(0.35277775,0,0,-0.35277777,1.385389,128.66247)"><text
       xml:space="preserve"
       transform="matrix(0,1,1,0,8.62,232.33)"
       style="font-variant:normal;font-weight:bold;font-size:12px;font-family:Helvetica;-inkscape-font-specification:Helvetica-Bold;writing-mode:lr-tb;fill:#000000;fill-opacity:1;fill-rule:nonzero;stroke:none"
       id="text2016"><tspan
         x="0 9.3360004 19.332001 27.996 31.332001 38.784 45.456001 52.787998"
         y="0"
         sodipodi:role="line"
         id="tspan2014">OMNIgene</tspan></text><text
       xml:space="preserve"
       transform="matrix(0,1,1,0,19.87,221.12)"
       style="font-variant:normal;font-weight:normal;font-size:12px;font-family:Helvetica;-inkscape-font-specification:Helvetica;writing-mode:lr-tb;fill:#000000;fill-opacity:1;fill-rule:nonzero;stroke:none"
       id="text2020"><tspan
         x="0 9.9960003 12.66 18.66 22.656 29.327999 36 42.672001 48.672001 52.007999 61.344002 65.220001 71.891998"
         y="0"
         sodipodi:role="line"
         id="tspan2018">Microbes/Gram</tspan></text></g><g
     id="g2034"
     transform="matrix(0.35277775,0,0,-0.35277777,1.385389,128.66247)"><text
       xml:space="preserve"
       transform="matrix(1,0,0,-1,58.26,349.95)"
       style="font-variant:normal;font-weight:normal;font-size:14px;font-family:Helvetica;-inkscape-font-specification:Helvetica;writing-mode:lr-tb;fill:#000000;fill-opacity:1;fill-rule:nonzero;stroke:none"
       id="text2038"><tspan
         x="0 9.3380003 14 21.784 28.784 36.568001 41.650002 48.299999 56.084 59.976002 63.084 69.734001"
         y="0"
         sodipodi:role="line"
         id="tspan2036">Preservative</tspan></text></g><g
     id="g2062"
     transform="matrix(0.35277775,0,0,-0.35277777,1.385389,128.66247)"><g
       id="g2064"
       clip-path="url(#clipPath2068)"><path
         d="M 193.85,180 H 387.7 V 360 H 193.85 Z"
         style="fill:#ffffff;fill-opacity:1;fill-rule:nonzero;stroke:#ffffff;stroke-width:1.07;stroke-linecap:round;stroke-linejoin:round;stroke-miterlimit:10;stroke-dasharray:none;stroke-opacity:1"
         id="path2070" /></g></g><g
     id="g2074"
     transform="matrix(0.35277775,0,0,-0.35277777,1.385389,128.66247)"><g
       id="g2076"
       clip-path="url(#clipPath2080)"><path
         d="M 196.59,182.74 H 384.86 V 341.39 H 196.59 Z"
         style="fill:#ffffff;fill-opacity:1;fill-rule:nonzero;stroke:none"
         id="path2082" /><path
         d="M 196.59,240.72 H 384.86"
         style="fill:none;stroke:#ebebeb;stroke-width:0.53;stroke-linecap:butt;stroke-linejoin:round;stroke-miterlimit:10;stroke-dasharray:none;stroke-opacity:1"
         id="path2084" /><path
         d="M 196.59,298.73 H 384.86"
         style="fill:none;stroke:#ebebeb;stroke-width:0.53;stroke-linecap:butt;stroke-linejoin:round;stroke-miterlimit:10;stroke-dasharray:none;stroke-opacity:1"
         id="path2086" /><path
         d="M 196.59,210.38 H 384.86"
         style="fill:none;stroke:#ebebeb;stroke-width:1.07;stroke-linecap:butt;stroke-linejoin:round;stroke-miterlimit:10;stroke-dasharray:none;stroke-opacity:1"
         id="path2088" /><path
         d="M 196.59,271.05 H 384.86"
         style="fill:none;stroke:#ebebeb;stroke-width:1.07;stroke-linecap:butt;stroke-linejoin:round;stroke-miterlimit:10;stroke-dasharray:none;stroke-opacity:1"
         id="path2090" /><path
         d="M 196.59,326.41 H 384.86"
         style="fill:none;stroke:#ebebeb;stroke-width:1.07;stroke-linecap:butt;stroke-linejoin:round;stroke-miterlimit:10;stroke-dasharray:none;stroke-opacity:1"
         id="path2092" /><path
         d="m 231.89,282.7 58.83,-6.85 58.84,9.57"
         style="fill:none;stroke:#bebebe;stroke-width:1.07;stroke-linecap:butt;stroke-linejoin:round;stroke-miterlimit:10;stroke-dasharray:none;stroke-opacity:1"
         id="path2094" /><path
         d="m 228.95,315.79 h 5.88"
         style="fill:none;stroke:#000000;stroke-width:1.07;stroke-linecap:butt;stroke-linejoin:round;stroke-miterlimit:10;stroke-dasharray:none;stroke-opacity:1"
         id="path2096" /><path
         d="m 231.89,315.79 v -66"
         style="fill:none;stroke:#000000;stroke-width:1.07;stroke-linecap:butt;stroke-linejoin:round;stroke-miterlimit:10;stroke-dasharray:none;stroke-opacity:1"
         id="path2098" /><path
         d="m 228.95,249.79 h 5.88"
         style="fill:none;stroke:#000000;stroke-width:1.07;stroke-linecap:butt;stroke-linejoin:round;stroke-miterlimit:10;stroke-dasharray:none;stroke-opacity:1"
         id="path2100" /><path
         d="m 287.78,305.73 h 5.88"
         style="fill:none;stroke:#000000;stroke-width:1.07;stroke-linecap:butt;stroke-linejoin:round;stroke-miterlimit:10;stroke-dasharray:none;stroke-opacity:1"
         id="path2102" /><path
         d="M 290.72,305.73 V 246.1"
         style="fill:none;stroke:#000000;stroke-width:1.07;stroke-linecap:butt;stroke-linejoin:round;stroke-miterlimit:10;stroke-dasharray:none;stroke-opacity:1"
         id="path2104" /><path
         d="m 287.78,246.1 h 5.88"
         style="fill:none;stroke:#000000;stroke-width:1.07;stroke-linecap:butt;stroke-linejoin:round;stroke-miterlimit:10;stroke-dasharray:none;stroke-opacity:1"
         id="path2106" /><path
         d="m 346.61,326.74 h 5.89"
         style="fill:none;stroke:#000000;stroke-width:1.07;stroke-linecap:butt;stroke-linejoin:round;stroke-miterlimit:10;stroke-dasharray:none;stroke-opacity:1"
         id="path2108" /><path
         d="M 349.56,326.74 V 244.33"
         style="fill:none;stroke:#000000;stroke-width:1.07;stroke-linecap:butt;stroke-linejoin:round;stroke-miterlimit:10;stroke-dasharray:none;stroke-opacity:1"
         id="path2110" /><path
         d="m 346.61,244.33 h 5.89"
         style="fill:none;stroke:#000000;stroke-width:1.07;stroke-linecap:butt;stroke-linejoin:round;stroke-miterlimit:10;stroke-dasharray:none;stroke-opacity:1"
         id="path2112" /><path
         d="m 228.87,282.7 c 0,1.66 1.35,3.02 3.02,3.02 1.66,0 3.02,-1.36 3.02,-3.02 0,-1.67 -1.36,-3.03 -3.02,-3.03 -1.67,0 -3.02,1.36 -3.02,3.03"
         style="fill:#c3a5d0;fill-opacity:1;fill-rule:nonzero;stroke:#c3a5d0;stroke-width:0.71;stroke-linecap:round;stroke-linejoin:round;stroke-miterlimit:10;stroke-dasharray:none;stroke-opacity:1"
         id="path2114" /><path
         d="m 287.7,275.85 c 0,1.67 1.36,3.03 3.02,3.03 1.66,0 3.02,-1.36 3.02,-3.03 0,-1.66 -1.36,-3.02 -3.02,-3.02 -1.66,0 -3.02,1.36 -3.02,3.02"
         style="fill:#9a6faa;fill-opacity:1;fill-rule:nonzero;stroke:#9a6faa;stroke-width:0.71;stroke-linecap:round;stroke-linejoin:round;stroke-miterlimit:10;stroke-dasharray:none;stroke-opacity:1"
         id="path2116" /><path
         d="m 346.53,285.42 c 0,1.66 1.36,3.02 3.03,3.02 1.66,0 3.02,-1.36 3.02,-3.02 0,-1.66 -1.36,-3.02 -3.02,-3.02 -1.67,0 -3.03,1.36 -3.03,3.02"
         style="fill:#762983;fill-opacity:1;fill-rule:nonzero;stroke:#762983;stroke-width:0.71;stroke-linecap:round;stroke-linejoin:round;stroke-miterlimit:10;stroke-dasharray:none;stroke-opacity:1"
         id="path2118" /><path
         d="M 196.59,182.74 H 384.86 V 341.39 H 196.59 Z"
         style="fill:none;stroke:#333333;stroke-width:1.07;stroke-linecap:round;stroke-linejoin:round;stroke-miterlimit:10;stroke-dasharray:none;stroke-opacity:1"
         id="path2120" /></g></g><g
     id="g2196"
     transform="matrix(0.35277775,0,0,-0.35277777,1.385389,128.66247)"><text
       xml:space="preserve"
       transform="matrix(1,0,0,-1,196.59,349.95)"
       style="font-variant:normal;font-weight:normal;font-size:14px;font-family:Helvetica;-inkscape-font-specification:Helvetica;writing-mode:lr-tb;fill:#000000;fill-opacity:1;fill-rule:nonzero;stroke:none"
       id="text2200"><tspan
         x="0 6.8740001 14.658 26.32 34.104 41.888 46.41 54.194 58.085999 65.870003 70.531998"
         y="0"
         sodipodi:role="line"
         id="tspan2198">Temperature</tspan></text></g><g
     id="g2310"
     transform="matrix(0.35277775,0,0,-0.35277777,1.385389,128.66247)"><g
       id="g2312"
       clip-path="url(#clipPath2316)"><path
         d="M 0,0 H 193.85 V 180 H 0 Z"
         style="fill:#ffffff;fill-opacity:1;fill-rule:nonzero;stroke:#ffffff;stroke-width:1.07;stroke-linecap:round;stroke-linejoin:round;stroke-miterlimit:10;stroke-dasharray:none;stroke-opacity:1"
         id="path2318" /></g></g><g
     id="g2322"
     transform="matrix(0.35277775,0,0,-0.35277777,1.385389,128.66247)"><g
       id="g2324"
       clip-path="url(#clipPath2328)"><path
         d="M 58.26,24.68 H 193.84 V 180 H 58.26 Z"
         style="fill:#ffffff;fill-opacity:1;fill-rule:nonzero;stroke:none"
         id="path2330" /><path
         d="M 58.26,62.42 H 193.85"
         style="fill:none;stroke:#ebebeb;stroke-width:0.53;stroke-linecap:butt;stroke-linejoin:round;stroke-miterlimit:10;stroke-dasharray:none;stroke-opacity:1"
         id="path2332" /><path
         d="M 58.26,123.79 H 193.85"
         style="fill:none;stroke:#ebebeb;stroke-width:0.53;stroke-linecap:butt;stroke-linejoin:round;stroke-miterlimit:10;stroke-dasharray:none;stroke-opacity:1"
         id="path2334" /><path
         d="M 58.26,31.74 H 193.85"
         style="fill:none;stroke:#ebebeb;stroke-width:1.07;stroke-linecap:butt;stroke-linejoin:round;stroke-miterlimit:10;stroke-dasharray:none;stroke-opacity:1"
         id="path2336" /><path
         d="M 58.26,93.1 H 193.85"
         style="fill:none;stroke:#ebebeb;stroke-width:1.07;stroke-linecap:butt;stroke-linejoin:round;stroke-miterlimit:10;stroke-dasharray:none;stroke-opacity:1"
         id="path2338" /><path
         d="M 58.26,154.47 H 193.85"
         style="fill:none;stroke:#ebebeb;stroke-width:1.07;stroke-linecap:butt;stroke-linejoin:round;stroke-miterlimit:10;stroke-dasharray:none;stroke-opacity:1"
         id="path2340" /><path
         d="m 95.24,140.63 61.63,-28.42"
         style="fill:none;stroke:#bebebe;stroke-width:1.07;stroke-linecap:butt;stroke-linejoin:round;stroke-miterlimit:10;stroke-dasharray:none;stroke-opacity:1"
         id="path2342" /><path
         d="m 92.16,164.73 h 6.16"
         style="fill:none;stroke:#000000;stroke-width:1.07;stroke-linecap:butt;stroke-linejoin:round;stroke-miterlimit:10;stroke-dasharray:none;stroke-opacity:1"
         id="path2344" /><path
         d="M 95.24,164.73 V 116.52"
         style="fill:none;stroke:#000000;stroke-width:1.07;stroke-linecap:butt;stroke-linejoin:round;stroke-miterlimit:10;stroke-dasharray:none;stroke-opacity:1"
         id="path2346" /><path
         d="m 92.16,116.52 h 6.16"
         style="fill:none;stroke:#000000;stroke-width:1.07;stroke-linecap:butt;stroke-linejoin:round;stroke-miterlimit:10;stroke-dasharray:none;stroke-opacity:1"
         id="path2348" /><path
         d="m 153.79,130.99 h 6.16"
         style="fill:none;stroke:#000000;stroke-width:1.07;stroke-linecap:butt;stroke-linejoin:round;stroke-miterlimit:10;stroke-dasharray:none;stroke-opacity:1"
         id="path2350" /><path
         d="M 156.87,130.99 V 93.44"
         style="fill:none;stroke:#000000;stroke-width:1.07;stroke-linecap:butt;stroke-linejoin:round;stroke-miterlimit:10;stroke-dasharray:none;stroke-opacity:1"
         id="path2352" /><path
         d="m 153.79,93.44 h 6.16"
         style="fill:none;stroke:#000000;stroke-width:1.07;stroke-linecap:butt;stroke-linejoin:round;stroke-miterlimit:10;stroke-dasharray:none;stroke-opacity:1"
         id="path2354" /><path
         d="m 92.22,140.63 c 0,1.66 1.36,3.02 3.02,3.02 1.66,0 3.02,-1.36 3.02,-3.02 0,-1.66 -1.36,-3.02 -3.02,-3.02 -1.66,0 -3.02,1.36 -3.02,3.02"
         style="fill:#acaaaf;fill-opacity:1;fill-rule:nonzero;stroke:#acaaaf;stroke-width:0.71;stroke-linecap:round;stroke-linejoin:round;stroke-miterlimit:10;stroke-dasharray:none;stroke-opacity:1"
         id="path2356" /><path
         d="m 153.85,112.21 c 0,1.67 1.36,3.03 3.02,3.03 1.66,0 3.02,-1.36 3.02,-3.03 0,-1.66 -1.36,-3.02 -3.02,-3.02 -1.66,0 -3.02,1.36 -3.02,3.02"
         style="fill:#7ebd42;fill-opacity:1;fill-rule:nonzero;stroke:#7ebd42;stroke-width:0.71;stroke-linecap:round;stroke-linejoin:round;stroke-miterlimit:10;stroke-dasharray:none;stroke-opacity:1"
         id="path2358" /><path
         d="M 58.26,24.68 H 193.84 V 180 H 58.26 Z"
         style="fill:none;stroke:#333333;stroke-width:1.07;stroke-linecap:round;stroke-linejoin:round;stroke-miterlimit:10;stroke-dasharray:none;stroke-opacity:1"
         id="path2360" /></g></g><g
     id="g2392"
     transform="matrix(0.35277775,0,0,-0.35277777,1.385389,128.66247)"><text
       xml:space="preserve"
       transform="matrix(1,0,0,-1,25.25,28.15)"
       style="font-variant:normal;font-weight:normal;font-size:10px;font-family:Helvetica;-inkscape-font-specification:Helvetica;writing-mode:lr-tb;fill:#4d4d4d;fill-opacity:1;fill-rule:nonzero;stroke:none"
       id="text2396"><tspan
         x="0 5.5599999 11.12 16.959999 22.52"
         y="0"
         sodipodi:role="line"
         id="tspan2394">1e+09</tspan></text><text
       xml:space="preserve"
       transform="matrix(1,0,0,-1,25.25,89.51)"
       style="font-variant:normal;font-weight:normal;font-size:10px;font-family:Helvetica;-inkscape-font-specification:Helvetica;writing-mode:lr-tb;fill:#4d4d4d;fill-opacity:1;fill-rule:nonzero;stroke:none"
       id="text2400"><tspan
         x="0 5.5599999 11.12 16.959999 22.52"
         y="0"
         sodipodi:role="line"
         id="tspan2398">1e+10</tspan></text><text
       xml:space="preserve"
       transform="matrix(1,0,0,-1,25.25,150.88)"
       style="font-variant:normal;font-weight:normal;font-size:10px;font-family:Helvetica;-inkscape-font-specification:Helvetica;writing-mode:lr-tb;fill:#4d4d4d;fill-opacity:1;fill-rule:nonzero;stroke:none"
       id="text2404"><tspan
         x="0 5.5599999 11.12 16.959999 22.52"
         y="0"
         sodipodi:role="line"
         id="tspan2402">1e+11</tspan></text></g><g
     id="g2408"
     transform="matrix(0.35277775,0,0,-0.35277777,1.385389,128.66247)"><path
       d="m 55.52,31.74 h 2.74"
       style="fill:none;stroke:#333333;stroke-width:1.07;stroke-linecap:butt;stroke-linejoin:round;stroke-miterlimit:10;stroke-dasharray:none;stroke-opacity:1"
       id="path2410" /><path
       d="m 55.52,93.1 h 2.74"
       style="fill:none;stroke:#333333;stroke-width:1.07;stroke-linecap:butt;stroke-linejoin:round;stroke-miterlimit:10;stroke-dasharray:none;stroke-opacity:1"
       id="path2412" /><path
       d="m 55.52,154.47 h 2.74"
       style="fill:none;stroke:#333333;stroke-width:1.07;stroke-linecap:butt;stroke-linejoin:round;stroke-miterlimit:10;stroke-dasharray:none;stroke-opacity:1"
       id="path2414" /></g><g
     id="g2434"
     transform="matrix(0.35277775,0,0,-0.35277777,1.385389,128.66247)"><path
       d="m 95.24,21.94 v 2.74"
       style="fill:none;stroke:#333333;stroke-width:1.07;stroke-linecap:butt;stroke-linejoin:round;stroke-miterlimit:10;stroke-dasharray:none;stroke-opacity:1"
       id="path2436" /><path
       d="m 156.87,21.94 v 2.74"
       style="fill:none;stroke:#333333;stroke-width:1.07;stroke-linecap:butt;stroke-linejoin:round;stroke-miterlimit:10;stroke-dasharray:none;stroke-opacity:1"
       id="path2438" /></g><g
     id="g2442"
     transform="matrix(0.35277775,0,0,-0.35277777,1.385389,128.66247)"><text
       xml:space="preserve"
       transform="matrix(1,0,0,-1,59.78,12.57)"
       style="font-variant:normal;font-weight:normal;font-size:10px;font-family:Helvetica;-inkscape-font-specification:Helvetica;writing-mode:lr-tb;fill:#4d4d4d;fill-opacity:1;fill-rule:nonzero;stroke:none"
       id="text2446"><tspan
         x="0 7.2199998 12.78 15.56 22.23 25.559999 31.120001 36.119999 41.68 45.310001 50.060001 55.619999 58.400002 60.619999 65.370003"
         y="0"
         sodipodi:role="line"
         id="tspan2444">No Preservative</tspan></text><text
       xml:space="preserve"
       transform="matrix(1,0,0,-1,81.15,2.2)"
       style="font-variant:normal;font-weight:normal;font-size:10px;font-family:Helvetica;-inkscape-font-specification:Helvetica;writing-mode:lr-tb;fill:#4d4d4d;fill-opacity:1;fill-rule:nonzero;stroke:none"
       id="text2450"><tspan
         x="0 5.8400002 11.4 16.959999 20.959999"
         y="0"
         sodipodi:role="line"
         id="tspan2448">−80°C</tspan></text><text
       xml:space="preserve"
       transform="matrix(1,0,0,-1,142.78,12.57)"
       style="font-variant:normal;font-weight:normal;font-size:10px;font-family:Helvetica;-inkscape-font-specification:Helvetica;writing-mode:lr-tb;fill:#4d4d4d;fill-opacity:1;fill-rule:nonzero;stroke:none"
       id="text2454"><tspan
         x="0 5.8400002 11.4 16.959999 20.959999"
         y="0"
         sodipodi:role="line"
         id="tspan2452">−80°C</tspan></text></g><g
     id="g2470"
     transform="matrix(0.35277775,0,0,-0.35277777,1.385389,128.66247)"><text
       xml:space="preserve"
       transform="matrix(0,1,1,0,8.62,86.34)"
       style="font-variant:normal;font-weight:bold;font-size:12px;font-family:Helvetica;-inkscape-font-specification:Helvetica-Bold;writing-mode:lr-tb;fill:#000000;fill-opacity:1;fill-rule:nonzero;stroke:none"
       id="text2474"><tspan
         x="0 7.3319998 14.004 24.672001"
         y="0"
         sodipodi:role="line"
         id="tspan2472">Zymo</tspan></text><text
       xml:space="preserve"
       transform="matrix(0,1,1,0,19.87,61.4)"
       style="font-variant:normal;font-weight:normal;font-size:12px;font-family:Helvetica;-inkscape-font-specification:Helvetica;writing-mode:lr-tb;fill:#000000;fill-opacity:1;fill-rule:nonzero;stroke:none"
       id="text2478"><tspan
         x="0 9.9960003 12.66 18.66 22.656 29.327999 36 42.672001 48.672001 52.007999 61.344002 65.220001 71.891998"
         y="0"
         sodipodi:role="line"
         id="tspan2476">Microbes/Gram</tspan></text></g><g
     id="g2514"
     transform="matrix(0.35277775,0,0,-0.35277777,1.385389,128.66247)"><g
       id="g2516"
       clip-path="url(#clipPath2520)"><path
         d="M 193.85,0 H 387.7 V 180 H 193.85 Z"
         style="fill:#ffffff;fill-opacity:1;fill-rule:nonzero;stroke:#ffffff;stroke-width:1.07;stroke-linecap:round;stroke-linejoin:round;stroke-miterlimit:10;stroke-dasharray:none;stroke-opacity:1"
         id="path2522" /></g></g><g
     id="g2526"
     transform="matrix(0.35277775,0,0,-0.35277777,1.385389,128.66247)"><g
       id="g2528"
       clip-path="url(#clipPath2532)"><path
         d="M 196.59,24.68 H 384.86 V 180 H 196.59 Z"
         style="fill:#ffffff;fill-opacity:1;fill-rule:nonzero;stroke:none"
         id="path2534" /><path
         d="M 196.59,62.42 H 384.86"
         style="fill:none;stroke:#ebebeb;stroke-width:0.53;stroke-linecap:butt;stroke-linejoin:round;stroke-miterlimit:10;stroke-dasharray:none;stroke-opacity:1"
         id="path2536" /><path
         d="M 196.59,123.79 H 384.86"
         style="fill:none;stroke:#ebebeb;stroke-width:0.53;stroke-linecap:butt;stroke-linejoin:round;stroke-miterlimit:10;stroke-dasharray:none;stroke-opacity:1"
         id="path2538" /><path
         d="M 196.59,31.74 H 384.86"
         style="fill:none;stroke:#ebebeb;stroke-width:1.07;stroke-linecap:butt;stroke-linejoin:round;stroke-miterlimit:10;stroke-dasharray:none;stroke-opacity:1"
         id="path2540" /><path
         d="M 196.59,93.1 H 384.86"
         style="fill:none;stroke:#ebebeb;stroke-width:1.07;stroke-linecap:butt;stroke-linejoin:round;stroke-miterlimit:10;stroke-dasharray:none;stroke-opacity:1"
         id="path2542" /><path
         d="M 196.59,154.47 H 384.86"
         style="fill:none;stroke:#ebebeb;stroke-width:1.07;stroke-linecap:butt;stroke-linejoin:round;stroke-miterlimit:10;stroke-dasharray:none;stroke-opacity:1"
         id="path2544" /><path
         d="M 231.89,112.21 290.72,91.57 349.56,62.25"
         style="fill:none;stroke:#bebebe;stroke-width:1.07;stroke-linecap:butt;stroke-linejoin:round;stroke-miterlimit:10;stroke-dasharray:none;stroke-opacity:1"
         id="path2546" /><path
         d="m 228.95,130.99 h 5.88"
         style="fill:none;stroke:#000000;stroke-width:1.07;stroke-linecap:butt;stroke-linejoin:round;stroke-miterlimit:10;stroke-dasharray:none;stroke-opacity:1"
         id="path2548" /><path
         d="M 231.89,130.99 V 93.44"
         style="fill:none;stroke:#000000;stroke-width:1.07;stroke-linecap:butt;stroke-linejoin:round;stroke-miterlimit:10;stroke-dasharray:none;stroke-opacity:1"
         id="path2550" /><path
         d="m 228.95,93.44 h 5.88"
         style="fill:none;stroke:#000000;stroke-width:1.07;stroke-linecap:butt;stroke-linejoin:round;stroke-miterlimit:10;stroke-dasharray:none;stroke-opacity:1"
         id="path2552" /><path
         d="m 287.78,111.91 h 5.88"
         style="fill:none;stroke:#000000;stroke-width:1.07;stroke-linecap:butt;stroke-linejoin:round;stroke-miterlimit:10;stroke-dasharray:none;stroke-opacity:1"
         id="path2554" /><path
         d="M 290.72,111.91 V 71.24"
         style="fill:none;stroke:#000000;stroke-width:1.07;stroke-linecap:butt;stroke-linejoin:round;stroke-miterlimit:10;stroke-dasharray:none;stroke-opacity:1"
         id="path2556" /><path
         d="m 287.78,71.24 h 5.88"
         style="fill:none;stroke:#000000;stroke-width:1.07;stroke-linecap:butt;stroke-linejoin:round;stroke-miterlimit:10;stroke-dasharray:none;stroke-opacity:1"
         id="path2558" /><path
         d="m 346.61,86.53 h 5.89"
         style="fill:none;stroke:#000000;stroke-width:1.07;stroke-linecap:butt;stroke-linejoin:round;stroke-miterlimit:10;stroke-dasharray:none;stroke-opacity:1"
         id="path2560" /><path
         d="M 349.56,86.53 V 37.97"
         style="fill:none;stroke:#000000;stroke-width:1.07;stroke-linecap:butt;stroke-linejoin:round;stroke-miterlimit:10;stroke-dasharray:none;stroke-opacity:1"
         id="path2562" /><path
         d="m 346.61,37.97 h 5.89"
         style="fill:none;stroke:#000000;stroke-width:1.07;stroke-linecap:butt;stroke-linejoin:round;stroke-miterlimit:10;stroke-dasharray:none;stroke-opacity:1"
         id="path2564" /><path
         d="m 228.87,112.21 c 0,1.67 1.35,3.03 3.02,3.03 1.66,0 3.02,-1.36 3.02,-3.03 0,-1.66 -1.36,-3.02 -3.02,-3.02 -1.67,0 -3.02,1.36 -3.02,3.02"
         style="fill:#7ebd42;fill-opacity:1;fill-rule:nonzero;stroke:#7ebd42;stroke-width:0.71;stroke-linecap:round;stroke-linejoin:round;stroke-miterlimit:10;stroke-dasharray:none;stroke-opacity:1"
         id="path2566" /><path
         d="m 287.7,91.57 c 0,1.66 1.36,3.02 3.02,3.02 1.66,0 3.02,-1.36 3.02,-3.02 0,-1.66 -1.36,-3.02 -3.02,-3.02 -1.66,0 -3.02,1.36 -3.02,3.02"
         style="fill:#4d9222;fill-opacity:1;fill-rule:nonzero;stroke:#4d9222;stroke-width:0.71;stroke-linecap:round;stroke-linejoin:round;stroke-miterlimit:10;stroke-dasharray:none;stroke-opacity:1"
         id="path2568" /><path
         d="m 346.53,62.25 c 0,1.66 1.36,3.02 3.03,3.02 1.66,0 3.02,-1.36 3.02,-3.02 0,-1.66 -1.36,-3.02 -3.02,-3.02 -1.67,0 -3.03,1.36 -3.03,3.02"
         style="fill:#26641a;fill-opacity:1;fill-rule:nonzero;stroke:#26641a;stroke-width:0.71;stroke-linecap:round;stroke-linejoin:round;stroke-miterlimit:10;stroke-dasharray:none;stroke-opacity:1"
         id="path2570" /><path
         d="M 196.59,24.68 H 384.86 V 180 H 196.59 Z"
         style="fill:none;stroke:#333333;stroke-width:1.07;stroke-linecap:round;stroke-linejoin:round;stroke-miterlimit:10;stroke-dasharray:none;stroke-opacity:1"
         id="path2572" /></g></g><g
     id="g2622"
     transform="matrix(0.35277775,0,0,-0.35277777,1.385389,128.66247)"><path
       d="m 231.89,21.94 v 2.74"
       style="fill:none;stroke:#333333;stroke-width:1.07;stroke-linecap:butt;stroke-linejoin:round;stroke-miterlimit:10;stroke-dasharray:none;stroke-opacity:1"
       id="path2624" /><path
       d="m 290.72,21.94 v 2.74"
       style="fill:none;stroke:#333333;stroke-width:1.07;stroke-linecap:butt;stroke-linejoin:round;stroke-miterlimit:10;stroke-dasharray:none;stroke-opacity:1"
       id="path2626" /><path
       d="m 349.56,21.94 v 2.74"
       style="fill:none;stroke:#333333;stroke-width:1.07;stroke-linecap:butt;stroke-linejoin:round;stroke-miterlimit:10;stroke-dasharray:none;stroke-opacity:1"
       id="path2628" /></g><g
     id="g2632"
     transform="matrix(0.35277775,0,0,-0.35277777,1.385389,128.66247)"><text
       xml:space="preserve"
       transform="matrix(1,0,0,-1,217.8,12.57)"
       style="font-variant:normal;font-weight:normal;font-size:10px;font-family:Helvetica;-inkscape-font-specification:Helvetica;writing-mode:lr-tb;fill:#4d4d4d;fill-opacity:1;fill-rule:nonzero;stroke:none"
       id="text2636"><tspan
         x="0 5.8400002 11.4 16.959999 20.959999"
         y="0"
         sodipodi:role="line"
         id="tspan2634">−80°C</tspan></text><text
       xml:space="preserve"
       transform="matrix(1,0,0,-1,279.55,12.57)"
       style="font-variant:normal;font-weight:normal;font-size:10px;font-family:Helvetica;-inkscape-font-specification:Helvetica;writing-mode:lr-tb;fill:#4d4d4d;fill-opacity:1;fill-rule:nonzero;stroke:none"
       id="text2640"><tspan
         x="0 5.5599999 11.12 15.12"
         y="0"
         sodipodi:role="line"
         id="tspan2638">23°C</tspan></text><text
       xml:space="preserve"
       transform="matrix(1,0,0,-1,338.39,12.57)"
       style="font-variant:normal;font-weight:normal;font-size:10px;font-family:Helvetica;-inkscape-font-specification:Helvetica;writing-mode:lr-tb;fill:#4d4d4d;fill-opacity:1;fill-rule:nonzero;stroke:none"
       id="text2644"><tspan
         x="0 5.5599999 11.12 15.12"
         y="0"
         sodipodi:role="line"
         id="tspan2642">40°C</tspan></text></g><g
     id="g2852"
     transform="matrix(0.35277775,0,0,-0.35277777,1.385389,128.66247)"><path
       d="m 395.3,229.1 c 0,1.08 0.88,1.96 1.96,1.96 1.07,0 1.95,-0.88 1.95,-1.96 0,-1.07 -0.88,-1.95 -1.95,-1.95 -1.08,0 -1.96,0.88 -1.96,1.95"
       style="fill:#acaaaf;fill-opacity:1;fill-rule:nonzero;stroke:#acaaaf;stroke-width:0.71;stroke-linecap:round;stroke-linejoin:round;stroke-miterlimit:10;stroke-dasharray:none;stroke-opacity:1"
       id="path2854" /></g><g
     id="g2862"
     transform="matrix(0.35277775,0,0,-0.35277777,1.385389,128.66247)"><path
       d="m 395.3,211.82 c 0,1.08 0.88,1.96 1.96,1.96 1.07,0 1.95,-0.88 1.95,-1.96 0,-1.07 -0.88,-1.95 -1.95,-1.95 -1.08,0 -1.96,0.88 -1.96,1.95"
       style="fill:#c3a5d0;fill-opacity:1;fill-rule:nonzero;stroke:#c3a5d0;stroke-width:0.71;stroke-linecap:round;stroke-linejoin:round;stroke-miterlimit:10;stroke-dasharray:none;stroke-opacity:1"
       id="path2864" /></g><g
     id="g2872"
     transform="matrix(0.35277775,0,0,-0.35277777,1.385389,128.66247)"><path
       d="m 395.3,194.54 c 0,1.08 0.88,1.96 1.96,1.96 1.07,0 1.95,-0.88 1.95,-1.96 0,-1.07 -0.88,-1.95 -1.95,-1.95 -1.08,0 -1.96,0.88 -1.96,1.95"
       style="fill:#9a6faa;fill-opacity:1;fill-rule:nonzero;stroke:#9a6faa;stroke-width:0.71;stroke-linecap:round;stroke-linejoin:round;stroke-miterlimit:10;stroke-dasharray:none;stroke-opacity:1"
       id="path2874" /></g><g
     id="g2882"
     transform="matrix(0.35277775,0,0,-0.35277777,1.385389,128.66247)"><path
       d="m 395.3,177.26 c 0,1.08 0.88,1.96 1.96,1.96 1.07,0 1.95,-0.88 1.95,-1.96 0,-1.07 -0.88,-1.95 -1.95,-1.95 -1.08,0 -1.96,0.88 -1.96,1.95"
       style="fill:#762983;fill-opacity:1;fill-rule:nonzero;stroke:#762983;stroke-width:0.71;stroke-linecap:round;stroke-linejoin:round;stroke-miterlimit:10;stroke-dasharray:none;stroke-opacity:1"
       id="path2884" /></g><g
     id="g2892"
     transform="matrix(0.35277775,0,0,-0.35277777,1.385389,128.66247)"><path
       d="m 395.3,159.98 c 0,1.08 0.88,1.96 1.96,1.96 1.07,0 1.95,-0.88 1.95,-1.96 0,-1.07 -0.88,-1.95 -1.95,-1.95 -1.08,0 -1.96,0.88 -1.96,1.95"
       style="fill:#7ebd42;fill-opacity:1;fill-rule:nonzero;stroke:#7ebd42;stroke-width:0.71;stroke-linecap:round;stroke-linejoin:round;stroke-miterlimit:10;stroke-dasharray:none;stroke-opacity:1"
       id="path2894" /></g><g
     id="g2902"
     transform="matrix(0.35277775,0,0,-0.35277777,1.385389,128.66247)"><path
       d="m 395.3,142.7 c 0,1.08 0.88,1.96 1.96,1.96 1.07,0 1.95,-0.88 1.95,-1.96 0,-1.07 -0.88,-1.95 -1.95,-1.95 -1.08,0 -1.96,0.88 -1.96,1.95"
       style="fill:#4d9222;fill-opacity:1;fill-rule:nonzero;stroke:#4d9222;stroke-width:0.71;stroke-linecap:round;stroke-linejoin:round;stroke-miterlimit:10;stroke-dasharray:none;stroke-opacity:1"
       id="path2904" /></g><g
     id="g2912"
     transform="matrix(0.35277775,0,0,-0.35277777,1.385389,128.66247)"><path
       d="m 395.3,125.42 c 0,1.08 0.88,1.96 1.96,1.96 1.07,0 1.95,-0.88 1.95,-1.96 0,-1.07 -0.88,-1.95 -1.95,-1.95 -1.08,0 -1.96,0.88 -1.96,1.95"
       style="fill:#26641a;fill-opacity:1;fill-rule:nonzero;stroke:#26641a;stroke-width:0.71;stroke-linecap:round;stroke-linejoin:round;stroke-miterlimit:10;stroke-dasharray:none;stroke-opacity:1"
       id="path2914" /></g><g
     id="g2922"
     transform="matrix(0.35277775,0,0,-0.35277777,1.385389,128.66247)"><text
       xml:space="preserve"
       transform="matrix(1,0,0,-1,411.38,225.87)"
       style="font-variant:normal;font-weight:normal;font-size:9px;font-family:Helvetica;-inkscape-font-specification:Helvetica;writing-mode:lr-tb;fill:#000000;fill-opacity:1;fill-rule:nonzero;stroke:none"
       id="text2926"><tspan
         x="0 6.4980001 11.502 14.004 20.007 23.004 28.007999 32.507999 37.512001 40.778999 45.054001 50.057999 52.560001 54.557999 58.833 63.837002 66.338997 71.595001 76.598999 81.602997 85.203003"
         y="0"
         sodipodi:role="line"
         id="tspan2924">No Preservative −80°C</tspan></text></g><g
     id="g2936"
     transform="matrix(0.35277775,0,0,-0.35277777,1.385389,128.66247)"><text
       xml:space="preserve"
       transform="matrix(1,0,0,-1,411.38,208.59)"
       style="font-variant:normal;font-weight:normal;font-size:9px;font-family:Helvetica;-inkscape-font-specification:Helvetica;writing-mode:lr-tb;fill:#000000;fill-opacity:1;fill-rule:nonzero;stroke:none"
       id="text2940"><tspan
         x="0 7.0019999 14.499 20.997 23.499001 28.503 33.507 38.511002 43.514999 46.016998 51.272999 56.277 61.280998 64.880997"
         y="0"
         sodipodi:role="line"
         id="tspan2938">OMNIgene −80°C</tspan></text></g><g
     id="g2950"
     transform="matrix(0.35277775,0,0,-0.35277777,1.385389,128.66247)"><text
       xml:space="preserve"
       transform="matrix(1,0,0,-1,411.38,191.31)"
       style="font-variant:normal;font-weight:normal;font-size:9px;font-family:Helvetica;-inkscape-font-specification:Helvetica;writing-mode:lr-tb;fill:#000000;fill-opacity:1;fill-rule:nonzero;stroke:none"
       id="text2954"><tspan
         x="0 7.0019999 14.499 20.997 23.499001 28.503 33.507 38.511002 43.514999 46.016998 51.021 56.025002 59.625"
         y="0"
         sodipodi:role="line"
         id="tspan2952">OMNIgene 23°C</tspan></text></g><g
     id="g2964"
     transform="matrix(0.35277775,0,0,-0.35277777,1.385389,128.66247)"><text
       xml:space="preserve"
       transform="matrix(1,0,0,-1,411.38,174.03)"
       style="font-variant:normal;font-weight:normal;font-size:9px;font-family:Helvetica;-inkscape-font-specification:Helvetica;writing-mode:lr-tb;fill:#000000;fill-opacity:1;fill-rule:nonzero;stroke:none"
       id="text2968"><tspan
         x="0 7.0019999 14.499 20.997 23.499001 28.503 33.507 38.511002 43.514999 46.016998 51.021 56.025002 59.625"
         y="0"
         sodipodi:role="line"
         id="tspan2966">OMNIgene 40°C</tspan></text></g><g
     id="g2978"
     transform="matrix(0.35277775,0,0,-0.35277777,1.385389,128.66247)"><text
       xml:space="preserve"
       transform="matrix(1,0,0,-1,411.38,156.75)"
       style="font-variant:normal;font-weight:normal;font-size:9px;font-family:Helvetica;-inkscape-font-specification:Helvetica;writing-mode:lr-tb;fill:#000000;fill-opacity:1;fill-rule:nonzero;stroke:none"
       id="text2982"><tspan
         x="0 5.4990001 9.9989996 17.496 22.5 25.002001 30.257999 35.262001 40.265999 43.866001"
         y="0"
         sodipodi:role="line"
         id="tspan2980">Zymo −80°C</tspan></text></g><g
     id="g2992"
     transform="matrix(0.35277775,0,0,-0.35277777,1.385389,128.66247)"><text
       xml:space="preserve"
       transform="matrix(1,0,0,-1,411.38,139.47)"
       style="font-variant:normal;font-weight:normal;font-size:9px;font-family:Helvetica;-inkscape-font-specification:Helvetica;writing-mode:lr-tb;fill:#000000;fill-opacity:1;fill-rule:nonzero;stroke:none"
       id="text2996"><tspan
         x="0 5.4990001 9.9989996 17.496 22.5 25.002001 30.006001 35.009998 38.610001"
         y="0"
         sodipodi:role="line"
         id="tspan2994">Zymo 23°C</tspan></text></g><g
     id="g3006"
     transform="matrix(0.35277775,0,0,-0.35277777,1.385389,128.66247)"><text
       xml:space="preserve"
       transform="matrix(1,0,0,-1,411.38,122.19)"
       style="font-variant:normal;font-weight:normal;font-size:9px;font-family:Helvetica;-inkscape-font-specification:Helvetica;writing-mode:lr-tb;fill:#000000;fill-opacity:1;fill-rule:nonzero;stroke:none"
       id="text3010"><tspan
         x="0 5.4990001 9.9989996 17.496 22.5 25.002001 30.006001 35.009998 38.610001"
         y="0"
         sodipodi:role="line"
         id="tspan3008">Zymo 40°C</tspan></text></g><g
     inkscape:label="Layer 1"
     inkscape:groupmode="layer"
     id="layer1"
     transform="translate(-165.95006,-8.6235658)" /><rect
     style="fill:#000000;stroke:#000000;stroke-width:0.211801;stroke-dasharray:none;stroke-opacity:1"
     id="rect3826"
     width="23.552198"
     height="0.082198851"
     x="35.155846"
     y="68.831123" /><text
     xml:space="preserve"
     style="font-variant:normal;font-weight:normal;font-size:4.93889px;font-family:Helvetica;-inkscape-font-specification:Helvetica;writing-mode:lr-tb;fill:#000000;fill-opacity:1;fill-rule:nonzero;stroke:none;stroke-width:0.352778"
     id="text1697-5"
     x="45.9842"
     y="70.10685"><tspan
       sodipodi:role="line"
       id="tspan1695-2"
       x="45.9842"
       y="70.10685"
       style="stroke-width:0.352778">*</tspan></text><g
     id="g6147"
     transform="translate(1.385396,1.6624752)"><rect
       style="fill:#000000;stroke:#000000;stroke-width:0.208951;stroke-dasharray:none;stroke-opacity:1"
       id="rect3826-0"
       width="22.155048"
       height="0.085047744"
       x="81.855972"
       y="76.087662" /><text
       xml:space="preserve"
       style="font-variant:normal;font-weight:normal;font-size:4.73912px;font-family:Helvetica;-inkscape-font-specification:Helvetica;writing-mode:lr-tb;fill:#000000;fill-opacity:1;fill-rule:nonzero;stroke:none;stroke-width:0.338508"
       id="text1697-5-2"
       x="88.222626"
       y="80.26635"
       transform="scale(1.0426498,0.9590948)"><tspan
         sodipodi:role="line"
         id="tspan1695-2-3"
         x="88.222626"
         y="80.26635"
         style="stroke-width:0.338508">*</tspan></text></g><rect
     style="fill:#000000;stroke:#000000;stroke-width:0.236637;stroke-dasharray:none;stroke-opacity:1"
     id="rect3826-0-9"
     width="42.128365"
     height="0.057363067"
     x="83.311386"
     y="73.965752" /><text
     xml:space="preserve"
     style="font-variant:normal;font-weight:normal;font-size:4.93889px;font-family:Helvetica;-inkscape-font-specification:Helvetica;writing-mode:lr-tb;fill:#000000;fill-opacity:1;fill-rule:nonzero;stroke:none;stroke-width:0.352778"
     id="text1697-5-2-7"
     x="101.50581"
     y="74.306816"><tspan
       sodipodi:role="line"
       id="tspan1695-2-3-0"
       x="101.50581"
       y="74.306816"
       style="stroke-width:0.352778">***</tspan></text></svg>
