<?xml version="1.0" encoding="UTF-8" standalone="no"?>
<!-- Created with Inkscape (http://www.inkscape.org/) -->

<svg
   width="145.2861mm"
   height="130.36613mm"
   viewBox="0 0 145.2861 130.36614"
   version="1.1"
   id="svg5"
   xml:space="preserve"
   inkscape:version="1.2.1 (9c6d41e, 2022-07-14)"
   sodipodi:docname="SupplementaryFigure2_AcintoAbsoluteAbundance.svg"
   xmlns:inkscape="http://www.inkscape.org/namespaces/inkscape"
   xmlns:sodipodi="http://sodipodi.sourceforge.net/DTD/sodipodi-0.dtd"
   xmlns="http://www.w3.org/2000/svg"
   xmlns:svg="http://www.w3.org/2000/svg"><sodipodi:namedview
     id="namedview7"
     pagecolor="#ffffff"
     bordercolor="#000000"
     borderopacity="0.25"
     inkscape:showpageshadow="2"
     inkscape:pageopacity="0.0"
     inkscape:pagecheckerboard="0"
     inkscape:deskcolor="#d1d1d1"
     inkscape:document-units="mm"
     showgrid="false"
     inkscape:zoom="1.3504346"
     inkscape:cx="240.29302"
     inkscape:cy="276.20739"
     inkscape:window-width="1829"
     inkscape:window-height="820"
     inkscape:window-x="1824"
     inkscape:window-y="263"
     inkscape:window-maximized="0"
     inkscape:current-layer="svg5" /><defs
     id="defs2"><clipPath
       clipPathUnits="userSpaceOnUse"
       id="clipPath1077"><path
         d="M 0,180 H 396 V 360 H 0 Z"
         id="path1075" /></clipPath><clipPath
       clipPathUnits="userSpaceOnUse"
       id="clipPath1099"><path
         d="M 0,180 H 198 V 360 H 0 Z"
         id="path1097" /></clipPath><clipPath
       clipPathUnits="userSpaceOnUse"
       id="clipPath1111"><path
         d="M 58.26,182.74 H 198 V 341.39 H 58.26 Z"
         id="path1109" /></clipPath><clipPath
       clipPathUnits="userSpaceOnUse"
       id="clipPath1287"><path
         d="M 198,180 H 396 V 360 H 198 Z"
         id="path1285" /></clipPath><clipPath
       clipPathUnits="userSpaceOnUse"
       id="clipPath1299"><path
         d="M 200.74,182.74 H 393.17 V 341.39 H 200.74 Z"
         id="path1297" /></clipPath><clipPath
       clipPathUnits="userSpaceOnUse"
       id="clipPath1515"><path
         d="M 0,0 H 396 V 180 H 0 Z"
         id="path1513" /></clipPath><clipPath
       clipPathUnits="userSpaceOnUse"
       id="clipPath1535"><path
         d="M 0,0 H 198 V 180 H 0 Z"
         id="path1533" /></clipPath><clipPath
       clipPathUnits="userSpaceOnUse"
       id="clipPath1547"><path
         d="M 58.26,24.68 H 198 V 180 H 58.26 Z"
         id="path1545" /></clipPath><clipPath
       clipPathUnits="userSpaceOnUse"
       id="clipPath1739"><path
         d="M 198,0 H 396 V 180 H 198 Z"
         id="path1737" /></clipPath><clipPath
       clipPathUnits="userSpaceOnUse"
       id="clipPath1751"><path
         d="M 200.74,24.68 H 393.17 V 180 H 200.74 Z"
         id="path1749" /></clipPath></defs><g
     inkscape:label="Layer 1"
     inkscape:groupmode="layer"
     id="layer1"
     transform="translate(-12.049362,-10.286041)" /><g
     id="g1093"
     transform="matrix(0.35277776,0,0,-0.35277778,1.4069389,129.05721)"><g
       id="g1095"
       clip-path="url(#clipPath1099)"><path
         d="M 0,180 H 198 V 360 H 0 Z"
         style="fill:#ffffff;fill-opacity:1;fill-rule:nonzero;stroke:#ffffff;stroke-width:1.07;stroke-linecap:round;stroke-linejoin:round;stroke-miterlimit:10;stroke-dasharray:none;stroke-opacity:1"
         id="path1101" /></g></g><g
     id="g1105"
     transform="matrix(0.35277776,0,0,-0.35277778,1.4069389,129.05721)"><g
       id="g1107"
       clip-path="url(#clipPath1111)"><path
         d="M 58.26,182.74 H 198 V 341.39 H 58.26 Z"
         style="fill:#ffffff;fill-opacity:1;fill-rule:nonzero;stroke:none"
         id="path1113" /><path
         d="M 58.26,240.72 H 198"
         style="fill:none;stroke:#ebebeb;stroke-width:0.53;stroke-linecap:butt;stroke-linejoin:round;stroke-miterlimit:10;stroke-dasharray:none;stroke-opacity:1"
         id="path1115" /><path
         d="M 58.26,298.73 H 198"
         style="fill:none;stroke:#ebebeb;stroke-width:0.53;stroke-linecap:butt;stroke-linejoin:round;stroke-miterlimit:10;stroke-dasharray:none;stroke-opacity:1"
         id="path1117" /><path
         d="M 58.26,210.38 H 198"
         style="fill:none;stroke:#ebebeb;stroke-width:1.07;stroke-linecap:butt;stroke-linejoin:round;stroke-miterlimit:10;stroke-dasharray:none;stroke-opacity:1"
         id="path1119" /><path
         d="M 58.26,271.05 H 198"
         style="fill:none;stroke:#ebebeb;stroke-width:1.07;stroke-linecap:butt;stroke-linejoin:round;stroke-miterlimit:10;stroke-dasharray:none;stroke-opacity:1"
         id="path1121" /><path
         d="M 58.26,326.41 H 198"
         style="fill:none;stroke:#ebebeb;stroke-width:1.07;stroke-linecap:butt;stroke-linejoin:round;stroke-miterlimit:10;stroke-dasharray:none;stroke-opacity:1"
         id="path1123" /><path
         d="m 96.37,244.89 63.52,37.81"
         style="fill:none;stroke:#bebebe;stroke-width:1.07;stroke-linecap:butt;stroke-linejoin:round;stroke-miterlimit:10;stroke-dasharray:none;stroke-opacity:1"
         id="path1125" /><path
         d="m 93.2,290.46 h 6.35"
         style="fill:none;stroke:#000000;stroke-width:1.07;stroke-linecap:butt;stroke-linejoin:round;stroke-miterlimit:10;stroke-dasharray:none;stroke-opacity:1"
         id="path1127" /><path
         d="M 96.37,290.46 V 199.3"
         style="fill:none;stroke:#000000;stroke-width:1.07;stroke-linecap:butt;stroke-linejoin:round;stroke-miterlimit:10;stroke-dasharray:none;stroke-opacity:1"
         id="path1129" /><path
         d="m 93.2,199.3 h 6.35"
         style="fill:none;stroke:#000000;stroke-width:1.07;stroke-linecap:butt;stroke-linejoin:round;stroke-miterlimit:10;stroke-dasharray:none;stroke-opacity:1"
         id="path1131" /><path
         d="m 156.71,315.79 h 6.36"
         style="fill:none;stroke:#000000;stroke-width:1.07;stroke-linecap:butt;stroke-linejoin:round;stroke-miterlimit:10;stroke-dasharray:none;stroke-opacity:1"
         id="path1133" /><path
         d="m 159.89,315.79 v -66"
         style="fill:none;stroke:#000000;stroke-width:1.07;stroke-linecap:butt;stroke-linejoin:round;stroke-miterlimit:10;stroke-dasharray:none;stroke-opacity:1"
         id="path1135" /><path
         d="m 156.71,249.79 h 6.36"
         style="fill:none;stroke:#000000;stroke-width:1.07;stroke-linecap:butt;stroke-linejoin:round;stroke-miterlimit:10;stroke-dasharray:none;stroke-opacity:1"
         id="path1137" /><path
         d="m 93.35,244.89 c 0,1.66 1.36,3.02 3.02,3.02 1.67,0 3.03,-1.36 3.03,-3.02 0,-1.66 -1.36,-3.02 -3.03,-3.02 -1.66,0 -3.02,1.36 -3.02,3.02"
         style="fill:#acaaaf;fill-opacity:1;fill-rule:nonzero;stroke:#acaaaf;stroke-width:0.71;stroke-linecap:round;stroke-linejoin:round;stroke-miterlimit:10;stroke-dasharray:none;stroke-opacity:1"
         id="path1139" /><path
         d="m 156.87,282.7 c 0,1.66 1.36,3.02 3.02,3.02 1.66,0 3.02,-1.36 3.02,-3.02 0,-1.67 -1.36,-3.03 -3.02,-3.03 -1.66,0 -3.02,1.36 -3.02,3.03"
         style="fill:#c3a5d0;fill-opacity:1;fill-rule:nonzero;stroke:#c3a5d0;stroke-width:0.71;stroke-linecap:round;stroke-linejoin:round;stroke-miterlimit:10;stroke-dasharray:none;stroke-opacity:1"
         id="path1141" /><path
         d="M 58.26,182.74 H 198 V 341.39 H 58.26 Z"
         style="fill:none;stroke:#333333;stroke-width:1.07;stroke-linecap:round;stroke-linejoin:round;stroke-miterlimit:10;stroke-dasharray:none;stroke-opacity:1"
         id="path1143" /></g></g><g
     id="g1175"
     transform="matrix(0.35277776,0,0,-0.35277778,1.4069389,129.05721)"><text
       xml:space="preserve"
       transform="matrix(1,0,0,-1,25.25,206.79)"
       style="font-variant:normal;font-weight:normal;font-size:10px;font-family:Helvetica;-inkscape-font-specification:Helvetica;writing-mode:lr-tb;fill:#4d4d4d;fill-opacity:1;fill-rule:nonzero;stroke:none"
       id="text1179"><tspan
         x="0 5.5599999 11.12 16.959999 22.52"
         y="0"
         sodipodi:role="line"
         id="tspan1177">3e+10</tspan></text><text
       xml:space="preserve"
       transform="matrix(1,0,0,-1,25.25,267.46)"
       style="font-variant:normal;font-weight:normal;font-size:10px;font-family:Helvetica;-inkscape-font-specification:Helvetica;writing-mode:lr-tb;fill:#4d4d4d;fill-opacity:1;fill-rule:nonzero;stroke:none"
       id="text1183"><tspan
         x="0 5.5599999 11.12 16.959999 22.52"
         y="0"
         sodipodi:role="line"
         id="tspan1181">1e+11</tspan></text><text
       xml:space="preserve"
       transform="matrix(1,0,0,-1,25.25,322.82)"
       style="font-variant:normal;font-weight:normal;font-size:10px;font-family:Helvetica;-inkscape-font-specification:Helvetica;writing-mode:lr-tb;fill:#4d4d4d;fill-opacity:1;fill-rule:nonzero;stroke:none"
       id="text1187"><tspan
         x="0 5.5599999 11.12 16.959999 22.52"
         y="0"
         sodipodi:role="line"
         id="tspan1185">3e+11</tspan></text></g><g
     id="g1191"
     transform="matrix(0.35277776,0,0,-0.35277778,1.4069389,129.05721)"><path
       d="m 55.52,210.38 h 2.74"
       style="fill:none;stroke:#333333;stroke-width:1.07;stroke-linecap:butt;stroke-linejoin:round;stroke-miterlimit:10;stroke-dasharray:none;stroke-opacity:1"
       id="path1193" /><path
       d="m 55.52,271.05 h 2.74"
       style="fill:none;stroke:#333333;stroke-width:1.07;stroke-linecap:butt;stroke-linejoin:round;stroke-miterlimit:10;stroke-dasharray:none;stroke-opacity:1"
       id="path1195" /><path
       d="m 55.52,326.41 h 2.74"
       style="fill:none;stroke:#333333;stroke-width:1.07;stroke-linecap:butt;stroke-linejoin:round;stroke-miterlimit:10;stroke-dasharray:none;stroke-opacity:1"
       id="path1197" /></g><g
     id="g1231"
     transform="matrix(0.35277776,0,0,-0.35277778,1.4069389,129.05721)"><text
       xml:space="preserve"
       transform="matrix(0,1,1,0,8.62,232.33)"
       style="font-variant:normal;font-weight:bold;font-size:12px;font-family:Helvetica;-inkscape-font-specification:Helvetica-Bold;writing-mode:lr-tb;fill:#000000;fill-opacity:1;fill-rule:nonzero;stroke:none"
       id="text1235"><tspan
         x="0 9.3360004 19.332001 27.996 31.332001 38.784 45.456001 52.787998"
         y="0"
         sodipodi:role="line"
         id="tspan1233">OMNIgene</tspan></text><text
       xml:space="preserve"
       transform="matrix(0,1,1,0,19.87,221.12)"
       style="font-variant:normal;font-weight:normal;font-size:12px;font-family:Helvetica;-inkscape-font-specification:Helvetica;writing-mode:lr-tb;fill:#000000;fill-opacity:1;fill-rule:nonzero;stroke:none"
       id="text1239"><tspan
         x="0 9.9960003 12.66 18.66 22.656 29.327999 36 42.672001 48.672001 52.007999 61.344002 65.220001 71.891998"
         y="0"
         sodipodi:role="line"
         id="tspan1237">Microbes/Gram</tspan></text></g><g
     id="g1253"
     transform="matrix(0.35277776,0,0,-0.35277778,1.4069389,129.05721)"><text
       xml:space="preserve"
       transform="matrix(1,0,0,-1,58.26,349.95)"
       style="font-variant:normal;font-weight:normal;font-size:14px;font-family:Helvetica;-inkscape-font-specification:Helvetica;writing-mode:lr-tb;fill:#000000;fill-opacity:1;fill-rule:nonzero;stroke:none"
       id="text1257"><tspan
         x="0 9.3380003 14 21.784 28.784 36.568001 41.650002 48.299999 56.084 59.976002 63.084 69.734001"
         y="0"
         sodipodi:role="line"
         id="tspan1255">Preservative</tspan></text></g><g
     id="g1281"
     transform="matrix(0.35277776,0,0,-0.35277778,1.4069389,129.05721)"><g
       id="g1283"
       clip-path="url(#clipPath1287)"><path
         d="M 198,180 H 396 V 360 H 198 Z"
         style="fill:#ffffff;fill-opacity:1;fill-rule:nonzero;stroke:#ffffff;stroke-width:1.07;stroke-linecap:round;stroke-linejoin:round;stroke-miterlimit:10;stroke-dasharray:none;stroke-opacity:1"
         id="path1289" /></g></g><g
     id="g1293"
     transform="matrix(0.35277776,0,0,-0.35277778,1.4069389,129.05721)"><g
       id="g1295"
       clip-path="url(#clipPath1299)"><path
         d="M 200.74,182.74 H 393.17 V 341.39 H 200.74 Z"
         style="fill:#ffffff;fill-opacity:1;fill-rule:nonzero;stroke:none"
         id="path1301" /><path
         d="M 200.74,240.72 H 393.17"
         style="fill:none;stroke:#ebebeb;stroke-width:0.53;stroke-linecap:butt;stroke-linejoin:round;stroke-miterlimit:10;stroke-dasharray:none;stroke-opacity:1"
         id="path1303" /><path
         d="M 200.74,298.73 H 393.17"
         style="fill:none;stroke:#ebebeb;stroke-width:0.53;stroke-linecap:butt;stroke-linejoin:round;stroke-miterlimit:10;stroke-dasharray:none;stroke-opacity:1"
         id="path1305" /><path
         d="M 200.74,210.38 H 393.17"
         style="fill:none;stroke:#ebebeb;stroke-width:1.07;stroke-linecap:butt;stroke-linejoin:round;stroke-miterlimit:10;stroke-dasharray:none;stroke-opacity:1"
         id="path1307" /><path
         d="M 200.74,271.05 H 393.17"
         style="fill:none;stroke:#ebebeb;stroke-width:1.07;stroke-linecap:butt;stroke-linejoin:round;stroke-miterlimit:10;stroke-dasharray:none;stroke-opacity:1"
         id="path1309" /><path
         d="M 200.74,326.41 H 393.17"
         style="fill:none;stroke:#ebebeb;stroke-width:1.07;stroke-linecap:butt;stroke-linejoin:round;stroke-miterlimit:10;stroke-dasharray:none;stroke-opacity:1"
         id="path1311" /><path
         d="m 236.82,282.7 60.13,-6.85 60.14,9.57"
         style="fill:none;stroke:#bebebe;stroke-width:1.07;stroke-linecap:butt;stroke-linejoin:round;stroke-miterlimit:10;stroke-dasharray:none;stroke-opacity:1"
         id="path1313" /><path
         d="m 233.81,315.79 h 6.02"
         style="fill:none;stroke:#000000;stroke-width:1.07;stroke-linecap:butt;stroke-linejoin:round;stroke-miterlimit:10;stroke-dasharray:none;stroke-opacity:1"
         id="path1315" /><path
         d="m 236.82,315.79 v -66"
         style="fill:none;stroke:#000000;stroke-width:1.07;stroke-linecap:butt;stroke-linejoin:round;stroke-miterlimit:10;stroke-dasharray:none;stroke-opacity:1"
         id="path1317" /><path
         d="m 233.81,249.79 h 6.02"
         style="fill:none;stroke:#000000;stroke-width:1.07;stroke-linecap:butt;stroke-linejoin:round;stroke-miterlimit:10;stroke-dasharray:none;stroke-opacity:1"
         id="path1319" /><path
         d="m 293.95,305.73 h 6.01"
         style="fill:none;stroke:#000000;stroke-width:1.07;stroke-linecap:butt;stroke-linejoin:round;stroke-miterlimit:10;stroke-dasharray:none;stroke-opacity:1"
         id="path1321" /><path
         d="M 296.95,305.73 V 246.1"
         style="fill:none;stroke:#000000;stroke-width:1.07;stroke-linecap:butt;stroke-linejoin:round;stroke-miterlimit:10;stroke-dasharray:none;stroke-opacity:1"
         id="path1323" /><path
         d="m 293.95,246.1 h 6.01"
         style="fill:none;stroke:#000000;stroke-width:1.07;stroke-linecap:butt;stroke-linejoin:round;stroke-miterlimit:10;stroke-dasharray:none;stroke-opacity:1"
         id="path1325" /><path
         d="m 354.08,326.74 h 6.01"
         style="fill:none;stroke:#000000;stroke-width:1.07;stroke-linecap:butt;stroke-linejoin:round;stroke-miterlimit:10;stroke-dasharray:none;stroke-opacity:1"
         id="path1327" /><path
         d="M 357.09,326.74 V 244.33"
         style="fill:none;stroke:#000000;stroke-width:1.07;stroke-linecap:butt;stroke-linejoin:round;stroke-miterlimit:10;stroke-dasharray:none;stroke-opacity:1"
         id="path1329" /><path
         d="m 354.08,244.33 h 6.01"
         style="fill:none;stroke:#000000;stroke-width:1.07;stroke-linecap:butt;stroke-linejoin:round;stroke-miterlimit:10;stroke-dasharray:none;stroke-opacity:1"
         id="path1331" /><path
         d="m 233.8,282.7 c 0,1.66 1.36,3.02 3.02,3.02 1.66,0 3.02,-1.36 3.02,-3.02 0,-1.67 -1.36,-3.03 -3.02,-3.03 -1.66,0 -3.02,1.36 -3.02,3.03"
         style="fill:#c3a5d0;fill-opacity:1;fill-rule:nonzero;stroke:#c3a5d0;stroke-width:0.71;stroke-linecap:round;stroke-linejoin:round;stroke-miterlimit:10;stroke-dasharray:none;stroke-opacity:1"
         id="path1333" /><path
         d="m 293.93,275.85 c 0,1.67 1.36,3.03 3.02,3.03 1.66,0 3.02,-1.36 3.02,-3.03 0,-1.66 -1.36,-3.02 -3.02,-3.02 -1.66,0 -3.02,1.36 -3.02,3.02"
         style="fill:#9a6faa;fill-opacity:1;fill-rule:nonzero;stroke:#9a6faa;stroke-width:0.71;stroke-linecap:round;stroke-linejoin:round;stroke-miterlimit:10;stroke-dasharray:none;stroke-opacity:1"
         id="path1335" /><path
         d="m 354.06,285.42 c 0,1.66 1.36,3.02 3.03,3.02 1.66,0 3.02,-1.36 3.02,-3.02 0,-1.66 -1.36,-3.02 -3.02,-3.02 -1.67,0 -3.03,1.36 -3.03,3.02"
         style="fill:#762983;fill-opacity:1;fill-rule:nonzero;stroke:#762983;stroke-width:0.71;stroke-linecap:round;stroke-linejoin:round;stroke-miterlimit:10;stroke-dasharray:none;stroke-opacity:1"
         id="path1337" /><path
         d="M 200.74,182.74 H 393.17 V 341.39 H 200.74 Z"
         style="fill:none;stroke:#333333;stroke-width:1.07;stroke-linecap:round;stroke-linejoin:round;stroke-miterlimit:10;stroke-dasharray:none;stroke-opacity:1"
         id="path1339" /></g></g><g
     id="g1415"
     transform="matrix(0.35277776,0,0,-0.35277778,1.4069389,129.05721)"><text
       xml:space="preserve"
       transform="matrix(1,0,0,-1,200.74,349.95)"
       style="font-variant:normal;font-weight:normal;font-size:14px;font-family:Helvetica;-inkscape-font-specification:Helvetica;writing-mode:lr-tb;fill:#000000;fill-opacity:1;fill-rule:nonzero;stroke:none"
       id="text1419"><tspan
         x="0 6.8740001 14.658 26.32 34.104 41.888 46.41 54.194 58.085999 65.870003 70.531998"
         y="0"
         sodipodi:role="line"
         id="tspan1417">Temperature</tspan></text></g><g
     id="g1529"
     transform="matrix(0.35277776,0,0,-0.35277778,1.4069389,129.05721)"><g
       id="g1531"
       clip-path="url(#clipPath1535)"><path
         d="M 0,0 H 198 V 180 H 0 Z"
         style="fill:#ffffff;fill-opacity:1;fill-rule:nonzero;stroke:#ffffff;stroke-width:1.07;stroke-linecap:round;stroke-linejoin:round;stroke-miterlimit:10;stroke-dasharray:none;stroke-opacity:1"
         id="path1537" /></g></g><g
     id="g1541"
     transform="matrix(0.35277776,0,0,-0.35277778,1.4069389,129.05721)"><g
       id="g1543"
       clip-path="url(#clipPath1547)"><path
         d="M 58.26,24.68 H 198 V 180 H 58.26 Z"
         style="fill:#ffffff;fill-opacity:1;fill-rule:nonzero;stroke:none"
         id="path1549" /><path
         d="M 58.26,62.42 H 198"
         style="fill:none;stroke:#ebebeb;stroke-width:0.53;stroke-linecap:butt;stroke-linejoin:round;stroke-miterlimit:10;stroke-dasharray:none;stroke-opacity:1"
         id="path1551" /><path
         d="M 58.26,123.79 H 198"
         style="fill:none;stroke:#ebebeb;stroke-width:0.53;stroke-linecap:butt;stroke-linejoin:round;stroke-miterlimit:10;stroke-dasharray:none;stroke-opacity:1"
         id="path1553" /><path
         d="M 58.26,31.74 H 198"
         style="fill:none;stroke:#ebebeb;stroke-width:1.07;stroke-linecap:butt;stroke-linejoin:round;stroke-miterlimit:10;stroke-dasharray:none;stroke-opacity:1"
         id="path1555" /><path
         d="M 58.26,93.1 H 198"
         style="fill:none;stroke:#ebebeb;stroke-width:1.07;stroke-linecap:butt;stroke-linejoin:round;stroke-miterlimit:10;stroke-dasharray:none;stroke-opacity:1"
         id="path1557" /><path
         d="M 58.26,154.47 H 198"
         style="fill:none;stroke:#ebebeb;stroke-width:1.07;stroke-linecap:butt;stroke-linejoin:round;stroke-miterlimit:10;stroke-dasharray:none;stroke-opacity:1"
         id="path1559" /><path
         d="m 96.37,140.63 63.52,-28.42"
         style="fill:none;stroke:#bebebe;stroke-width:1.07;stroke-linecap:butt;stroke-linejoin:round;stroke-miterlimit:10;stroke-dasharray:none;stroke-opacity:1"
         id="path1561" /><path
         d="m 93.2,164.73 h 6.35"
         style="fill:none;stroke:#000000;stroke-width:1.07;stroke-linecap:butt;stroke-linejoin:round;stroke-miterlimit:10;stroke-dasharray:none;stroke-opacity:1"
         id="path1563" /><path
         d="M 96.37,164.73 V 116.52"
         style="fill:none;stroke:#000000;stroke-width:1.07;stroke-linecap:butt;stroke-linejoin:round;stroke-miterlimit:10;stroke-dasharray:none;stroke-opacity:1"
         id="path1565" /><path
         d="m 93.2,116.52 h 6.35"
         style="fill:none;stroke:#000000;stroke-width:1.07;stroke-linecap:butt;stroke-linejoin:round;stroke-miterlimit:10;stroke-dasharray:none;stroke-opacity:1"
         id="path1567" /><path
         d="m 156.71,130.99 h 6.36"
         style="fill:none;stroke:#000000;stroke-width:1.07;stroke-linecap:butt;stroke-linejoin:round;stroke-miterlimit:10;stroke-dasharray:none;stroke-opacity:1"
         id="path1569" /><path
         d="M 159.89,130.99 V 93.44"
         style="fill:none;stroke:#000000;stroke-width:1.07;stroke-linecap:butt;stroke-linejoin:round;stroke-miterlimit:10;stroke-dasharray:none;stroke-opacity:1"
         id="path1571" /><path
         d="m 156.71,93.44 h 6.36"
         style="fill:none;stroke:#000000;stroke-width:1.07;stroke-linecap:butt;stroke-linejoin:round;stroke-miterlimit:10;stroke-dasharray:none;stroke-opacity:1"
         id="path1573" /><path
         d="m 93.35,140.63 c 0,1.66 1.36,3.02 3.02,3.02 1.67,0 3.03,-1.36 3.03,-3.02 0,-1.66 -1.36,-3.02 -3.03,-3.02 -1.66,0 -3.02,1.36 -3.02,3.02"
         style="fill:#acaaaf;fill-opacity:1;fill-rule:nonzero;stroke:#acaaaf;stroke-width:0.71;stroke-linecap:round;stroke-linejoin:round;stroke-miterlimit:10;stroke-dasharray:none;stroke-opacity:1"
         id="path1575" /><path
         d="m 156.87,112.21 c 0,1.67 1.36,3.03 3.02,3.03 1.66,0 3.02,-1.36 3.02,-3.03 0,-1.66 -1.36,-3.02 -3.02,-3.02 -1.66,0 -3.02,1.36 -3.02,3.02"
         style="fill:#7ebd42;fill-opacity:1;fill-rule:nonzero;stroke:#7ebd42;stroke-width:0.71;stroke-linecap:round;stroke-linejoin:round;stroke-miterlimit:10;stroke-dasharray:none;stroke-opacity:1"
         id="path1577" /><path
         d="M 58.26,24.68 H 198 V 180 H 58.26 Z"
         style="fill:none;stroke:#333333;stroke-width:1.07;stroke-linecap:round;stroke-linejoin:round;stroke-miterlimit:10;stroke-dasharray:none;stroke-opacity:1"
         id="path1579" /></g></g><g
     id="g1611"
     transform="matrix(0.35277776,0,0,-0.35277778,1.4069389,129.05721)"><text
       xml:space="preserve"
       transform="matrix(1,0,0,-1,25.25,28.15)"
       style="font-variant:normal;font-weight:normal;font-size:10px;font-family:Helvetica;-inkscape-font-specification:Helvetica;writing-mode:lr-tb;fill:#4d4d4d;fill-opacity:1;fill-rule:nonzero;stroke:none"
       id="text1615"><tspan
         x="0 5.5599999 11.12 16.959999 22.52"
         y="0"
         sodipodi:role="line"
         id="tspan1613">1e+09</tspan></text><text
       xml:space="preserve"
       transform="matrix(1,0,0,-1,25.25,89.51)"
       style="font-variant:normal;font-weight:normal;font-size:10px;font-family:Helvetica;-inkscape-font-specification:Helvetica;writing-mode:lr-tb;fill:#4d4d4d;fill-opacity:1;fill-rule:nonzero;stroke:none"
       id="text1619"><tspan
         x="0 5.5599999 11.12 16.959999 22.52"
         y="0"
         sodipodi:role="line"
         id="tspan1617">1e+10</tspan></text><text
       xml:space="preserve"
       transform="matrix(1,0,0,-1,25.25,150.88)"
       style="font-variant:normal;font-weight:normal;font-size:10px;font-family:Helvetica;-inkscape-font-specification:Helvetica;writing-mode:lr-tb;fill:#4d4d4d;fill-opacity:1;fill-rule:nonzero;stroke:none"
       id="text1623"><tspan
         x="0 5.5599999 11.12 16.959999 22.52"
         y="0"
         sodipodi:role="line"
         id="tspan1621">1e+11</tspan></text></g><g
     id="g1627"
     transform="matrix(0.35277776,0,0,-0.35277778,1.4069389,129.05721)"><path
       d="m 55.52,31.74 h 2.74"
       style="fill:none;stroke:#333333;stroke-width:1.07;stroke-linecap:butt;stroke-linejoin:round;stroke-miterlimit:10;stroke-dasharray:none;stroke-opacity:1"
       id="path1629" /><path
       d="m 55.52,93.1 h 2.74"
       style="fill:none;stroke:#333333;stroke-width:1.07;stroke-linecap:butt;stroke-linejoin:round;stroke-miterlimit:10;stroke-dasharray:none;stroke-opacity:1"
       id="path1631" /><path
       d="m 55.52,154.47 h 2.74"
       style="fill:none;stroke:#333333;stroke-width:1.07;stroke-linecap:butt;stroke-linejoin:round;stroke-miterlimit:10;stroke-dasharray:none;stroke-opacity:1"
       id="path1633" /></g><g
     id="g1653"
     transform="matrix(0.35277776,0,0,-0.35277778,1.4069389,129.05721)"><path
       d="m 96.37,21.94 v 2.74"
       style="fill:none;stroke:#333333;stroke-width:1.07;stroke-linecap:butt;stroke-linejoin:round;stroke-miterlimit:10;stroke-dasharray:none;stroke-opacity:1"
       id="path1655" /><path
       d="m 159.89,21.94 v 2.74"
       style="fill:none;stroke:#333333;stroke-width:1.07;stroke-linecap:butt;stroke-linejoin:round;stroke-miterlimit:10;stroke-dasharray:none;stroke-opacity:1"
       id="path1657" /></g><g
     id="g1661"
     transform="matrix(0.35277776,0,0,-0.35277778,1.4069389,129.05721)"><text
       xml:space="preserve"
       transform="matrix(1,0,0,-1,60.91,12.57)"
       style="font-variant:normal;font-weight:normal;font-size:10px;font-family:Helvetica;-inkscape-font-specification:Helvetica;writing-mode:lr-tb;fill:#4d4d4d;fill-opacity:1;fill-rule:nonzero;stroke:none"
       id="text1665"><tspan
         x="0 7.2199998 12.78 15.56 22.23 25.559999 31.120001 36.119999 41.68 45.310001 50.060001 55.619999 58.400002 60.619999 65.370003"
         y="0"
         sodipodi:role="line"
         id="tspan1663">No Preservative</tspan></text><text
       xml:space="preserve"
       transform="matrix(1,0,0,-1,82.28,2.2)"
       style="font-variant:normal;font-weight:normal;font-size:10px;font-family:Helvetica;-inkscape-font-specification:Helvetica;writing-mode:lr-tb;fill:#4d4d4d;fill-opacity:1;fill-rule:nonzero;stroke:none"
       id="text1669"><tspan
         x="0 5.8400002 11.4 16.959999 20.959999"
         y="0"
         sodipodi:role="line"
         id="tspan1667">−80°C</tspan></text><text
       xml:space="preserve"
       transform="matrix(1,0,0,-1,145.8,12.57)"
       style="font-variant:normal;font-weight:normal;font-size:10px;font-family:Helvetica;-inkscape-font-specification:Helvetica;writing-mode:lr-tb;fill:#4d4d4d;fill-opacity:1;fill-rule:nonzero;stroke:none"
       id="text1673"><tspan
         x="0 5.8400002 11.4 16.959999 20.959999"
         y="0"
         sodipodi:role="line"
         id="tspan1671">−80°C</tspan></text></g><g
     id="g1689"
     transform="matrix(0.35277776,0,0,-0.35277778,1.4069389,129.05721)"><text
       xml:space="preserve"
       transform="matrix(0,1,1,0,8.62,86.34)"
       style="font-variant:normal;font-weight:bold;font-size:12px;font-family:Helvetica;-inkscape-font-specification:Helvetica-Bold;writing-mode:lr-tb;fill:#000000;fill-opacity:1;fill-rule:nonzero;stroke:none"
       id="text1693"><tspan
         x="0 7.3319998 14.004 24.672001"
         y="0"
         sodipodi:role="line"
         id="tspan1691">Zymo</tspan></text><text
       xml:space="preserve"
       transform="matrix(0,1,1,0,19.87,61.4)"
       style="font-variant:normal;font-weight:normal;font-size:12px;font-family:Helvetica;-inkscape-font-specification:Helvetica;writing-mode:lr-tb;fill:#000000;fill-opacity:1;fill-rule:nonzero;stroke:none"
       id="text1697"><tspan
         x="0 9.9960003 12.66 18.66 22.656 29.327999 36 42.672001 48.672001 52.007999 61.344002 65.220001 71.891998"
         y="0"
         sodipodi:role="line"
         id="tspan1695">Microbes/Gram</tspan></text></g><g
     id="g1733"
     transform="matrix(0.35277776,0,0,-0.35277778,1.4069389,129.05721)"><g
       id="g1735"
       clip-path="url(#clipPath1739)"><path
         d="M 198,0 H 396 V 180 H 198 Z"
         style="fill:#ffffff;fill-opacity:1;fill-rule:nonzero;stroke:#ffffff;stroke-width:1.07;stroke-linecap:round;stroke-linejoin:round;stroke-miterlimit:10;stroke-dasharray:none;stroke-opacity:1"
         id="path1741" /></g></g><g
     id="g1745"
     transform="matrix(0.35277776,0,0,-0.35277778,1.4069389,129.05721)"><g
       id="g1747"
       clip-path="url(#clipPath1751)"><path
         d="M 200.74,24.68 H 393.17 V 180 H 200.74 Z"
         style="fill:#ffffff;fill-opacity:1;fill-rule:nonzero;stroke:none"
         id="path1753" /><path
         d="M 200.74,62.42 H 393.17"
         style="fill:none;stroke:#ebebeb;stroke-width:0.53;stroke-linecap:butt;stroke-linejoin:round;stroke-miterlimit:10;stroke-dasharray:none;stroke-opacity:1"
         id="path1755" /><path
         d="M 200.74,123.79 H 393.17"
         style="fill:none;stroke:#ebebeb;stroke-width:0.53;stroke-linecap:butt;stroke-linejoin:round;stroke-miterlimit:10;stroke-dasharray:none;stroke-opacity:1"
         id="path1757" /><path
         d="M 200.74,31.74 H 393.17"
         style="fill:none;stroke:#ebebeb;stroke-width:1.07;stroke-linecap:butt;stroke-linejoin:round;stroke-miterlimit:10;stroke-dasharray:none;stroke-opacity:1"
         id="path1759" /><path
         d="M 200.74,93.1 H 393.17"
         style="fill:none;stroke:#ebebeb;stroke-width:1.07;stroke-linecap:butt;stroke-linejoin:round;stroke-miterlimit:10;stroke-dasharray:none;stroke-opacity:1"
         id="path1761" /><path
         d="M 200.74,154.47 H 393.17"
         style="fill:none;stroke:#ebebeb;stroke-width:1.07;stroke-linecap:butt;stroke-linejoin:round;stroke-miterlimit:10;stroke-dasharray:none;stroke-opacity:1"
         id="path1763" /><path
         d="M 236.82,112.21 296.95,91.57 357.09,62.25"
         style="fill:none;stroke:#bebebe;stroke-width:1.07;stroke-linecap:butt;stroke-linejoin:round;stroke-miterlimit:10;stroke-dasharray:none;stroke-opacity:1"
         id="path1765" /><path
         d="m 233.81,130.99 h 6.02"
         style="fill:none;stroke:#000000;stroke-width:1.07;stroke-linecap:butt;stroke-linejoin:round;stroke-miterlimit:10;stroke-dasharray:none;stroke-opacity:1"
         id="path1767" /><path
         d="M 236.82,130.99 V 93.44"
         style="fill:none;stroke:#000000;stroke-width:1.07;stroke-linecap:butt;stroke-linejoin:round;stroke-miterlimit:10;stroke-dasharray:none;stroke-opacity:1"
         id="path1769" /><path
         d="m 233.81,93.44 h 6.02"
         style="fill:none;stroke:#000000;stroke-width:1.07;stroke-linecap:butt;stroke-linejoin:round;stroke-miterlimit:10;stroke-dasharray:none;stroke-opacity:1"
         id="path1771" /><path
         d="m 293.95,111.91 h 6.01"
         style="fill:none;stroke:#000000;stroke-width:1.07;stroke-linecap:butt;stroke-linejoin:round;stroke-miterlimit:10;stroke-dasharray:none;stroke-opacity:1"
         id="path1773" /><path
         d="M 296.95,111.91 V 71.24"
         style="fill:none;stroke:#000000;stroke-width:1.07;stroke-linecap:butt;stroke-linejoin:round;stroke-miterlimit:10;stroke-dasharray:none;stroke-opacity:1"
         id="path1775" /><path
         d="m 293.95,71.24 h 6.01"
         style="fill:none;stroke:#000000;stroke-width:1.07;stroke-linecap:butt;stroke-linejoin:round;stroke-miterlimit:10;stroke-dasharray:none;stroke-opacity:1"
         id="path1777" /><path
         d="m 354.08,86.53 h 6.01"
         style="fill:none;stroke:#000000;stroke-width:1.07;stroke-linecap:butt;stroke-linejoin:round;stroke-miterlimit:10;stroke-dasharray:none;stroke-opacity:1"
         id="path1779" /><path
         d="M 357.09,86.53 V 37.97"
         style="fill:none;stroke:#000000;stroke-width:1.07;stroke-linecap:butt;stroke-linejoin:round;stroke-miterlimit:10;stroke-dasharray:none;stroke-opacity:1"
         id="path1781" /><path
         d="m 354.08,37.97 h 6.01"
         style="fill:none;stroke:#000000;stroke-width:1.07;stroke-linecap:butt;stroke-linejoin:round;stroke-miterlimit:10;stroke-dasharray:none;stroke-opacity:1"
         id="path1783" /><path
         d="m 233.8,112.21 c 0,1.67 1.36,3.03 3.02,3.03 1.66,0 3.02,-1.36 3.02,-3.03 0,-1.66 -1.36,-3.02 -3.02,-3.02 -1.66,0 -3.02,1.36 -3.02,3.02"
         style="fill:#7ebd42;fill-opacity:1;fill-rule:nonzero;stroke:#7ebd42;stroke-width:0.71;stroke-linecap:round;stroke-linejoin:round;stroke-miterlimit:10;stroke-dasharray:none;stroke-opacity:1"
         id="path1785" /><path
         d="m 293.93,91.57 c 0,1.66 1.36,3.02 3.02,3.02 1.66,0 3.02,-1.36 3.02,-3.02 0,-1.66 -1.36,-3.02 -3.02,-3.02 -1.66,0 -3.02,1.36 -3.02,3.02"
         style="fill:#4d9222;fill-opacity:1;fill-rule:nonzero;stroke:#4d9222;stroke-width:0.71;stroke-linecap:round;stroke-linejoin:round;stroke-miterlimit:10;stroke-dasharray:none;stroke-opacity:1"
         id="path1787" /><path
         d="m 354.06,62.25 c 0,1.66 1.36,3.02 3.03,3.02 1.66,0 3.02,-1.36 3.02,-3.02 0,-1.66 -1.36,-3.02 -3.02,-3.02 -1.67,0 -3.03,1.36 -3.03,3.02"
         style="fill:#26641a;fill-opacity:1;fill-rule:nonzero;stroke:#26641a;stroke-width:0.71;stroke-linecap:round;stroke-linejoin:round;stroke-miterlimit:10;stroke-dasharray:none;stroke-opacity:1"
         id="path1789" /><path
         d="M 200.74,24.68 H 393.17 V 180 H 200.74 Z"
         style="fill:none;stroke:#333333;stroke-width:1.07;stroke-linecap:round;stroke-linejoin:round;stroke-miterlimit:10;stroke-dasharray:none;stroke-opacity:1"
         id="path1791" /></g></g><g
     id="g1841"
     transform="matrix(0.35277776,0,0,-0.35277778,1.4069389,129.05721)"><path
       d="m 236.82,21.94 v 2.74"
       style="fill:none;stroke:#333333;stroke-width:1.07;stroke-linecap:butt;stroke-linejoin:round;stroke-miterlimit:10;stroke-dasharray:none;stroke-opacity:1"
       id="path1843" /><path
       d="m 296.95,21.94 v 2.74"
       style="fill:none;stroke:#333333;stroke-width:1.07;stroke-linecap:butt;stroke-linejoin:round;stroke-miterlimit:10;stroke-dasharray:none;stroke-opacity:1"
       id="path1845" /><path
       d="m 357.09,21.94 v 2.74"
       style="fill:none;stroke:#333333;stroke-width:1.07;stroke-linecap:butt;stroke-linejoin:round;stroke-miterlimit:10;stroke-dasharray:none;stroke-opacity:1"
       id="path1847" /></g><g
     id="g1851"
     transform="matrix(0.35277776,0,0,-0.35277778,1.4069389,129.05721)"><text
       xml:space="preserve"
       transform="matrix(1,0,0,-1,222.73,12.57)"
       style="font-variant:normal;font-weight:normal;font-size:10px;font-family:Helvetica;-inkscape-font-specification:Helvetica;writing-mode:lr-tb;fill:#4d4d4d;fill-opacity:1;fill-rule:nonzero;stroke:none"
       id="text1855"><tspan
         x="0 5.8400002 11.4 16.959999 20.959999"
         y="0"
         sodipodi:role="line"
         id="tspan1853">−80°C</tspan></text><text
       xml:space="preserve"
       transform="matrix(1,0,0,-1,285.78,12.57)"
       style="font-variant:normal;font-weight:normal;font-size:10px;font-family:Helvetica;-inkscape-font-specification:Helvetica;writing-mode:lr-tb;fill:#4d4d4d;fill-opacity:1;fill-rule:nonzero;stroke:none"
       id="text1859"><tspan
         x="0 5.5599999 11.12 15.12"
         y="0"
         sodipodi:role="line"
         id="tspan1857">23°C</tspan></text><text
       xml:space="preserve"
       transform="matrix(1,0,0,-1,345.92,12.57)"
       style="font-variant:normal;font-weight:normal;font-size:10px;font-family:Helvetica;-inkscape-font-specification:Helvetica;writing-mode:lr-tb;fill:#4d4d4d;fill-opacity:1;fill-rule:nonzero;stroke:none"
       id="text1863"><tspan
         x="0 5.5599999 11.12 15.12"
         y="0"
         sodipodi:role="line"
         id="tspan1861">40°C</tspan></text></g><rect
     style="fill:#000000;stroke:#000000;stroke-width:0.211801;stroke-dasharray:none;stroke-opacity:1"
     id="rect3826"
     width="23.552198"
     height="0.082198851"
     x="35.277599"
     y="69.662361" /><text
     xml:space="preserve"
     style="font-variant:normal;font-weight:normal;font-size:4.93889px;font-family:Helvetica;-inkscape-font-specification:Helvetica;writing-mode:lr-tb;fill:#000000;fill-opacity:1;fill-rule:nonzero;stroke:none;stroke-width:0.352778"
     id="text1697-5"
     x="46.105949"
     y="70.938087"><tspan
       sodipodi:role="line"
       id="tspan1695-2"
       x="46.105949"
       y="70.938087"
       style="stroke-width:0.352778">*</tspan></text><rect
     style="fill:#000000;stroke:#000000;stroke-width:0.211801;stroke-dasharray:none;stroke-opacity:1"
     id="rect3826-0"
     width="23.552197"
     height="0.08219894"
     x="84.422874"
     y="78.582802" /><text
     xml:space="preserve"
     style="font-variant:normal;font-weight:normal;font-size:4.73912px;font-family:Helvetica;-inkscape-font-specification:Helvetica;writing-mode:lr-tb;fill:#000000;fill-opacity:1;fill-rule:nonzero;stroke:none;stroke-width:0.338508"
     id="text1697-5-2"
     x="91.354523"
     y="83.155312"
     transform="scale(1.0426498,0.95909482)"><tspan
       sodipodi:role="line"
       id="tspan1695-2-3"
       x="91.354523"
       y="83.155312"
       style="stroke-width:0.338508">*</tspan></text><g
     id="g4094"><rect
       style="fill:#000000;stroke:#000000;stroke-width:0.237181;stroke-dasharray:none;stroke-opacity:1"
       id="rect3826-0-9"
       width="42.727428"
       height="0.056819122"
       x="84.239639"
       y="74.658722" /><text
       xml:space="preserve"
       style="font-variant:normal;font-weight:normal;font-size:4.93889px;font-family:Helvetica;-inkscape-font-specification:Helvetica;writing-mode:lr-tb;fill:#000000;fill-opacity:1;fill-rule:nonzero;stroke:none;stroke-width:0.352778"
       id="text1697-5-2-7"
       x="102.73359"
       y="75.138054"><tspan
         sodipodi:role="line"
         id="tspan1695-2-3-0"
         x="102.73359"
         y="75.138054"
         style="stroke-width:0.352778">***</tspan></text></g></svg>
